mtllib link_23.mtl
v 0.0225000009 0.0299999993 0
v -0.0274999999 0 0
v -0.0274999999 0.0299999993 0
v 0.0225000009 0 0
v -0.0274999999 0.0299999993 0.00300000003
v -0.0274999999 0 0
v -0.0274999999 0 0.00300000003
v -0.0274999999 0.0299999993 0
v 0.0225000009 0 0
v 0.0225000009 0.0299999993 0.00300000003
v 0.0225000009 0 0.00300000003
v 0.0225000009 0.0299999993 0
v 0.0225000009 0 0.00300000003
v -0.0274999999 0.0299999993 0.00300000003
v -0.0274999999 0 0.00300000003
v 0.0225000009 0.0299999993 0.00300000003
v 0.0225000009 0 0.00300000003
v -0.0274999999 0 0
v 0.0225000009 0 0
v -0.0274999999 0 0.00300000003
v -0.0274999999 0.0299999993 0.00300000003
v 0.0225000009 0.0299999993 0
v -0.0274999999 0.0299999993 0
v 0.0225000009 0.0299999993 0.00300000003
vt -0.0224528294 0.0299999993
vt 0.0275471695 0
vt 0.0275471695 0.0299999993
vt -0.0224528294 0
vt -0.0299999993 0.00300000003
vt 0 0
vt 0 0.00300000003
vt -0.0299999993 0
vt 0 0
vt 0.0299999993 0.00300000003
vt 0 0.00300000003
vt 0.0299999993 0
vt 0.0224528294 0
vt -0.0275471695 0.0299999993
vt -0.0275471695 0
vt 0.0224528294 0.0299999993
vt 0.0224528294 0.00300000003
vt -0.0275471695 0
vt 0.0224528294 0
vt -0.0275471695 0.00300000003
vt 0.0275471695 0.00300000003
vt -0.0224528294 0
vt 0.0275471695 0
vt -0.0224528294 0.00300000003
usemtl mat_0
f 1/1 2/2 3/3
f 2/2 1/1 4/4
f 5/5 6/6 7/7
f 6/6 5/5 8/8
f 9/9 10/10 11/11
f 10/10 9/9 12/12
f 13/13 14/14 15/15
f 14/14 13/13 16/16
f 17/17 18/18 19/19
f 18/18 17/17 20/20
f 21/21 22/22 23/23
f 22/22 21/21 24/24
