o mesh
v 0.049000 -0.133000 -0.002000
v 0.051341 -0.132769 -0.002000
v 0.053592 -0.132087 -0.002000
v 0.055667 -0.130978 -0.002000
v 0.057485 -0.129485 -0.002000
v 0.058978 -0.127667 -0.002000
v 0.060087 -0.125592 -0.002000
v 0.060769 -0.123341 -0.002000
v 0.061000 -0.121000 -0.002000
v 0.060769 0.123341 -0.002000
v 0.060087 0.125592 -0.002000
v 0.058978 0.127667 -0.002000
v 0.057485 0.129485 -0.002000
v 0.055667 0.130978 -0.002000
v 0.053592 0.132087 -0.002000
v 0.051341 0.132769 -0.002000
v 0.049000 0.133000 -0.002000
v -0.051341 0.132769 -0.002000
v -0.053592 0.132087 -0.002000
v -0.055667 0.130978 -0.002000
v -0.057485 0.129485 -0.002000
v -0.058978 0.127667 -0.002000
v -0.060087 0.125592 -0.002000
v -0.060769 0.123341 -0.002000
v -0.061000 0.121000 -0.002000
v -0.060769 -0.123341 -0.002000
v -0.060087 -0.125592 -0.002000
v -0.058978 -0.127667 -0.002000
v -0.057485 -0.129485 -0.002000
v -0.055667 -0.130978 -0.002000
v -0.053592 -0.132087 -0.002000
v -0.051341 -0.132769 -0.002000
v -0.049000 -0.133000 -0.002000
v 0.049000 -0.133000 0.002000
v 0.051341 -0.132769 0.002000
v 0.053592 -0.132087 0.002000
v 0.055667 -0.130978 0.002000
v 0.057485 -0.129485 0.002000
v 0.058978 -0.127667 0.002000
v 0.060087 -0.125592 0.002000
v 0.060769 -0.123341 0.002000
v 0.061000 -0.121000 0.002000
v 0.060769 0.123341 0.002000
v 0.060087 0.125592 0.002000
v 0.058978 0.127667 0.002000
v 0.057485 0.129485 0.002000
v 0.055667 0.130978 0.002000
v 0.053592 0.132087 0.002000
v 0.051341 0.132769 0.002000
v 0.049000 0.133000 0.002000
v -0.051341 0.132769 0.002000
v -0.053592 0.132087 0.002000
v -0.055667 0.130978 0.002000
v -0.057485 0.129485 0.002000
v -0.058978 0.127667 0.002000
v -0.060087 0.125592 0.002000
v -0.060769 0.123341 0.002000
v -0.061000 0.121000 0.002000
v -0.060769 -0.123341 0.002000
v -0.060087 -0.125592 0.002000
v -0.058978 -0.127667 0.002000
v -0.057485 -0.129485 0.002000
v -0.055667 -0.130978 0.002000
v -0.053592 -0.132087 0.002000
v -0.051341 -0.132769 0.002000
v -0.049000 -0.133000 0.002000
v 0.041000 -0.104000 -0.002000
v 0.042553 -0.103796 -0.002000
v 0.044000 -0.103196 -0.002000
v 0.045243 -0.102243 -0.002000
v 0.046196 -0.101000 -0.002000
v 0.046796 -0.099553 -0.002000
v 0.047000 -0.098000 -0.002000
v 0.046796 -0.068447 -0.002000
v 0.046196 -0.067000 -0.002000
v 0.045243 -0.065757 -0.002000
v 0.044000 -0.064804 -0.002000
v 0.042553 -0.064204 -0.002000
v 0.041000 -0.064000 -0.002000
v -0.042553 -0.064204 -0.002000
v -0.044000 -0.064804 -0.002000
v -0.045243 -0.065757 -0.002000
v -0.046196 -0.067000 -0.002000
v -0.046796 -0.068447 -0.002000
v -0.047000 -0.070000 -0.002000
v -0.046796 -0.099553 -0.002000
v -0.046196 -0.101000 -0.002000
v -0.045243 -0.102243 -0.002000
v -0.044000 -0.103196 -0.002000
v -0.042553 -0.103796 -0.002000
v -0.041000 -0.104000 -0.002000
v 0.041000 -0.104000 0.002000
v 0.042553 -0.103796 0.002000
v 0.044000 -0.103196 0.002000
v 0.045243 -0.102243 0.002000
v 0.046196 -0.101000 0.002000
v 0.046796 -0.099553 0.002000
v 0.047000 -0.098000 0.002000
v 0.046796 -0.068447 0.002000
v 0.046196 -0.067000 0.002000
v 0.045243 -0.065757 0.002000
v 0.044000 -0.064804 0.002000
v 0.042553 -0.064204 0.002000
v 0.041000 -0.064000 0.002000
v -0.042553 -0.064204 0.002000
v -0.044000 -0.064804 0.002000
v -0.045243 -0.065757 0.002000
v -0.046196 -0.067000 0.002000
v -0.046796 -0.068447 0.002000
v -0.047000 -0.070000 0.002000
v -0.046796 -0.099553 0.002000
v -0.046196 -0.101000 0.002000
v -0.045243 -0.102243 0.002000
v -0.044000 -0.103196 0.002000
v -0.042553 -0.103796 0.002000
v -0.041000 -0.104000 0.002000
f 1 2 35
f 1 35 34
f 2 3 36
f 2 36 35
f 3 4 37
f 3 37 36
f 4 5 38
f 4 38 37
f 5 6 39
f 5 39 38
f 6 7 40
f 6 40 39
f 7 8 41
f 7 41 40
f 8 9 42
f 8 42 41
f 9 10 43
f 9 43 42
f 10 11 44
f 10 44 43
f 11 12 45
f 11 45 44
f 12 13 46
f 12 46 45
f 13 14 47
f 13 47 46
f 14 15 48
f 14 48 47
f 15 16 49
f 15 49 48
f 16 17 50
f 16 50 49
f 17 18 51
f 17 51 50
f 18 19 52
f 18 52 51
f 19 20 53
f 19 53 52
f 20 21 54
f 20 54 53
f 21 22 55
f 21 55 54
f 22 23 56
f 22 56 55
f 23 24 57
f 23 57 56
f 24 25 58
f 24 58 57
f 25 26 59
f 25 59 58
f 26 27 60
f 26 60 59
f 27 28 61
f 27 61 60
f 28 29 62
f 28 62 61
f 29 30 63
f 29 63 62
f 30 31 64
f 30 64 63
f 31 32 65
f 31 65 64
f 32 33 66
f 32 66 65
f 33 1 34
f 33 34 66
f 67 68 93
f 67 93 92
f 68 69 94
f 68 94 93
f 69 70 95
f 69 95 94
f 70 71 96
f 70 96 95
f 71 72 97
f 71 97 96
f 72 73 98
f 72 98 97
f 73 74 99
f 73 99 98
f 74 75 100
f 74 100 99
f 75 76 101
f 75 101 100
f 76 77 102
f 76 102 101
f 77 78 103
f 77 103 102
f 78 79 104
f 78 104 103
f 79 80 105
f 79 105 104
f 80 81 106
f 80 106 105
f 81 82 107
f 81 107 106
f 82 83 108
f 82 108 107
f 83 84 109
f 83 109 108
f 84 85 110
f 84 110 109
f 85 86 111
f 85 111 110
f 86 87 112
f 86 112 111
f 87 88 113
f 87 113 112
f 88 89 114
f 88 114 113
f 89 90 115
f 89 115 114
f 90 91 116
f 90 116 115
f 91 67 92
f 91 92 116
f 86 85 9
f 42 110 111
f 87 86 9
f 42 111 112
f 88 87 9
f 42 112 113
f 89 88 9
f 42 113 114
f 90 89 9
f 42 114 115
f 10 9 85
f 110 42 43
f 10 85 84
f 109 110 43
f 10 84 83
f 108 109 43
f 10 83 82
f 107 108 43
f 10 82 81
f 106 107 43
f 10 81 80
f 105 106 43
f 10 80 79
f 104 105 43
f 10 79 78
f 103 104 43
f 90 9 8
f 41 42 115
f 90 8 7
f 40 41 115
f 90 7 6
f 39 40 115
f 90 6 5
f 38 39 115
f 90 5 4
f 37 38 115
f 90 4 3
f 36 37 115
f 90 3 2
f 35 36 115
f 90 2 1
f 34 35 115
f 91 90 1
f 34 115 116
f 67 91 1
f 34 116 92
f 67 1 33
f 66 34 92
f 68 67 33
f 66 92 93
f 68 33 32
f 65 66 93
f 69 68 32
f 65 93 94
f 69 32 31
f 64 65 94
f 69 31 30
f 63 64 94
f 69 30 29
f 62 63 94
f 69 29 28
f 61 62 94
f 69 28 27
f 60 61 94
f 69 27 26
f 59 60 94
f 70 69 26
f 59 94 95
f 71 70 26
f 59 95 96
f 72 71 26
f 59 96 97
f 72 26 25
f 58 59 97
f 73 72 25
f 58 97 98
f 74 73 25
f 58 98 99
f 75 74 25
f 58 99 100
f 76 75 25
f 58 100 101
f 77 76 25
f 58 101 102
f 78 77 25
f 58 102 103
f 10 78 25
f 58 103 43
f 11 10 25
f 58 43 44
f 12 11 25
f 58 44 45
f 13 12 25
f 58 45 46
f 13 25 24
f 57 58 46
f 13 24 23
f 56 57 46
f 13 23 22
f 55 56 46
f 14 13 22
f 55 46 47
f 14 22 21
f 54 55 47
f 15 14 21
f 54 47 48
f 15 21 20
f 53 54 48
f 16 15 20
f 53 48 49
f 16 20 19
f 52 53 49
f 17 16 19
f 52 49 50
f 18 17 19
f 52 50 51
