o mesh
v 0.154000 -0.119000 -0.015000
v 0.156190 -0.118828 -0.015000
v 0.158326 -0.118315 -0.015000
v 0.160356 -0.117474 -0.015000
v 0.162229 -0.116326 -0.015000
v 0.163899 -0.114899 -0.015000
v 0.165326 -0.113229 -0.015000
v 0.166474 -0.111356 -0.015000
v 0.167315 -0.109326 -0.015000
v 0.167828 -0.107190 -0.015000
v 0.168000 -0.105000 -0.015000
v 0.167828 0.107190 -0.015000
v 0.167315 0.109326 -0.015000
v 0.166474 0.111356 -0.015000
v 0.165326 0.113229 -0.015000
v 0.163899 0.114899 -0.015000
v 0.162229 0.116326 -0.015000
v 0.160356 0.117474 -0.015000
v 0.158326 0.118315 -0.015000
v 0.156190 0.118828 -0.015000
v 0.154000 0.119000 -0.015000
v -0.156190 0.118828 -0.015000
v -0.158326 0.118315 -0.015000
v -0.160356 0.117474 -0.015000
v -0.162229 0.116326 -0.015000
v -0.163899 0.114899 -0.015000
v -0.165326 0.113229 -0.015000
v -0.166474 0.111356 -0.015000
v -0.167315 0.109326 -0.015000
v -0.167828 0.107190 -0.015000
v -0.168000 0.105000 -0.015000
v -0.167828 -0.107190 -0.015000
v -0.167315 -0.109326 -0.015000
v -0.166474 -0.111356 -0.015000
v -0.165326 -0.113229 -0.015000
v -0.163899 -0.114899 -0.015000
v -0.162229 -0.116326 -0.015000
v -0.160356 -0.117474 -0.015000
v -0.158326 -0.118315 -0.015000
v -0.156190 -0.118828 -0.015000
v -0.154000 -0.119000 -0.015000
v 0.154000 -0.119000 0.015000
v 0.156190 -0.118828 0.015000
v 0.158326 -0.118315 0.015000
v 0.160356 -0.117474 0.015000
v 0.162229 -0.116326 0.015000
v 0.163899 -0.114899 0.015000
v 0.165326 -0.113229 0.015000
v 0.166474 -0.111356 0.015000
v 0.167315 -0.109326 0.015000
v 0.167828 -0.107190 0.015000
v 0.168000 -0.105000 0.015000
v 0.167828 0.107190 0.015000
v 0.167315 0.109326 0.015000
v 0.166474 0.111356 0.015000
v 0.165326 0.113229 0.015000
v 0.163899 0.114899 0.015000
v 0.162229 0.116326 0.015000
v 0.160356 0.117474 0.015000
v 0.158326 0.118315 0.015000
v 0.156190 0.118828 0.015000
v 0.154000 0.119000 0.015000
v -0.156190 0.118828 0.015000
v -0.158326 0.118315 0.015000
v -0.160356 0.117474 0.015000
v -0.162229 0.116326 0.015000
v -0.163899 0.114899 0.015000
v -0.165326 0.113229 0.015000
v -0.166474 0.111356 0.015000
v -0.167315 0.109326 0.015000
v -0.167828 0.107190 0.015000
v -0.168000 0.105000 0.015000
v -0.167828 -0.107190 0.015000
v -0.167315 -0.109326 0.015000
v -0.166474 -0.111356 0.015000
v -0.165326 -0.113229 0.015000
v -0.163899 -0.114899 0.015000
v -0.162229 -0.116326 0.015000
v -0.160356 -0.117474 0.015000
v -0.158326 -0.118315 0.015000
v -0.156190 -0.118828 0.015000
v -0.154000 -0.119000 0.015000
v 0.120000 -0.081000 -0.015000
v 0.121951 -0.080808 -0.015000
v 0.123827 -0.080239 -0.015000
v 0.125556 -0.079315 -0.015000
v 0.127071 -0.078071 -0.015000
v 0.128315 -0.076556 -0.015000
v 0.129239 -0.074827 -0.015000
v 0.129808 -0.072951 -0.015000
v 0.130000 -0.071000 -0.015000
v 0.129808 0.072951 -0.015000
v 0.129239 0.074827 -0.015000
v 0.128315 0.076556 -0.015000
v 0.127071 0.078071 -0.015000
v 0.125556 0.079315 -0.015000
v 0.123827 0.080239 -0.015000
v 0.121951 0.080808 -0.015000
v 0.120000 0.081000 -0.015000
v -0.121951 0.080808 -0.015000
v -0.123827 0.080239 -0.015000
v -0.125556 0.079315 -0.015000
v -0.127071 0.078071 -0.015000
v -0.128315 0.076556 -0.015000
v -0.129239 0.074827 -0.015000
v -0.129808 0.072951 -0.015000
v -0.130000 0.071000 -0.015000
v -0.129808 -0.072951 -0.015000
v -0.129239 -0.074827 -0.015000
v -0.128315 -0.076556 -0.015000
v -0.127071 -0.078071 -0.015000
v -0.125556 -0.079315 -0.015000
v -0.123827 -0.080239 -0.015000
v -0.121951 -0.080808 -0.015000
v -0.120000 -0.081000 -0.015000
v 0.120000 -0.081000 0.015000
v 0.121951 -0.080808 0.015000
v 0.123827 -0.080239 0.015000
v 0.125556 -0.079315 0.015000
v 0.127071 -0.078071 0.015000
v 0.128315 -0.076556 0.015000
v 0.129239 -0.074827 0.015000
v 0.129808 -0.072951 0.015000
v 0.130000 -0.071000 0.015000
v 0.129808 0.072951 0.015000
v 0.129239 0.074827 0.015000
v 0.128315 0.076556 0.015000
v 0.127071 0.078071 0.015000
v 0.125556 0.079315 0.015000
v 0.123827 0.080239 0.015000
v 0.121951 0.080808 0.015000
v 0.120000 0.081000 0.015000
v -0.121951 0.080808 0.015000
v -0.123827 0.080239 0.015000
v -0.125556 0.079315 0.015000
v -0.127071 0.078071 0.015000
v -0.128315 0.076556 0.015000
v -0.129239 0.074827 0.015000
v -0.129808 0.072951 0.015000
v -0.130000 0.071000 0.015000
v -0.129808 -0.072951 0.015000
v -0.129239 -0.074827 0.015000
v -0.128315 -0.076556 0.015000
v -0.127071 -0.078071 0.015000
v -0.125556 -0.079315 0.015000
v -0.123827 -0.080239 0.015000
v -0.121951 -0.080808 0.015000
v -0.120000 -0.081000 0.015000
f 1 2 43
f 1 43 42
f 2 3 44
f 2 44 43
f 3 4 45
f 3 45 44
f 4 5 46
f 4 46 45
f 5 6 47
f 5 47 46
f 6 7 48
f 6 48 47
f 7 8 49
f 7 49 48
f 8 9 50
f 8 50 49
f 9 10 51
f 9 51 50
f 10 11 52
f 10 52 51
f 11 12 53
f 11 53 52
f 12 13 54
f 12 54 53
f 13 14 55
f 13 55 54
f 14 15 56
f 14 56 55
f 15 16 57
f 15 57 56
f 16 17 58
f 16 58 57
f 17 18 59
f 17 59 58
f 18 19 60
f 18 60 59
f 19 20 61
f 19 61 60
f 20 21 62
f 20 62 61
f 21 22 63
f 21 63 62
f 22 23 64
f 22 64 63
f 23 24 65
f 23 65 64
f 24 25 66
f 24 66 65
f 25 26 67
f 25 67 66
f 26 27 68
f 26 68 67
f 27 28 69
f 27 69 68
f 28 29 70
f 28 70 69
f 29 30 71
f 29 71 70
f 30 31 72
f 30 72 71
f 31 32 73
f 31 73 72
f 32 33 74
f 32 74 73
f 33 34 75
f 33 75 74
f 34 35 76
f 34 76 75
f 35 36 77
f 35 77 76
f 36 37 78
f 36 78 77
f 37 38 79
f 37 79 78
f 38 39 80
f 38 80 79
f 39 40 81
f 39 81 80
f 40 41 82
f 40 82 81
f 41 1 42
f 41 42 82
f 83 84 117
f 83 117 116
f 84 85 118
f 84 118 117
f 85 86 119
f 85 119 118
f 86 87 120
f 86 120 119
f 87 88 121
f 87 121 120
f 88 89 122
f 88 122 121
f 89 90 123
f 89 123 122
f 90 91 124
f 90 124 123
f 91 92 125
f 91 125 124
f 92 93 126
f 92 126 125
f 93 94 127
f 93 127 126
f 94 95 128
f 94 128 127
f 95 96 129
f 95 129 128
f 96 97 130
f 96 130 129
f 97 98 131
f 97 131 130
f 98 99 132
f 98 132 131
f 99 100 133
f 99 133 132
f 100 101 134
f 100 134 133
f 101 102 135
f 101 135 134
f 102 103 136
f 102 136 135
f 103 104 137
f 103 137 136
f 104 105 138
f 104 138 137
f 105 106 139
f 105 139 138
f 106 107 140
f 106 140 139
f 107 108 141
f 107 141 140
f 108 109 142
f 108 142 141
f 109 110 143
f 109 143 142
f 110 111 144
f 110 144 143
f 111 112 145
f 111 145 144
f 112 113 146
f 112 146 145
f 113 114 147
f 113 147 146
f 114 115 148
f 114 148 147
f 115 83 116
f 115 116 148
f 108 107 11
f 52 140 141
f 109 108 11
f 52 141 142
f 110 109 11
f 52 142 143
f 111 110 11
f 52 143 144
f 112 111 11
f 52 144 145
f 112 11 10
f 51 52 145
f 112 10 9
f 50 51 145
f 112 9 8
f 49 50 145
f 112 8 7
f 48 49 145
f 112 7 6
f 47 48 145
f 112 6 5
f 46 47 145
f 112 5 4
f 45 46 145
f 112 4 3
f 44 45 145
f 112 3 2
f 43 44 145
f 112 2 1
f 42 43 145
f 113 112 1
f 42 145 146
f 114 113 1
f 42 146 147
f 114 1 41
f 82 42 147
f 115 114 41
f 82 147 148
f 83 115 41
f 82 148 116
f 84 83 41
f 82 116 117
f 85 84 41
f 82 117 118
f 86 85 41
f 82 118 119
f 87 86 41
f 82 119 120
f 88 87 41
f 82 120 121
f 88 41 40
f 81 82 121
f 88 40 39
f 80 81 121
f 88 39 38
f 79 80 121
f 88 38 37
f 78 79 121
f 88 37 36
f 77 78 121
f 88 36 35
f 76 77 121
f 88 35 34
f 75 76 121
f 88 34 33
f 74 75 121
f 88 33 32
f 73 74 121
f 89 88 32
f 73 121 122
f 90 89 32
f 73 122 123
f 90 32 31
f 72 73 123
f 91 90 31
f 72 123 124
f 92 91 31
f 72 124 125
f 93 92 31
f 72 125 126
f 94 93 31
f 72 126 127
f 95 94 31
f 72 127 128
f 96 95 31
f 72 128 129
f 96 31 30
f 71 72 129
f 96 30 29
f 70 71 129
f 96 29 28
f 69 70 129
f 96 28 27
f 68 69 129
f 96 27 26
f 67 68 129
f 96 26 25
f 66 67 129
f 96 25 24
f 65 66 129
f 96 24 23
f 64 65 129
f 96 23 22
f 63 64 129
f 97 96 22
f 63 129 130
f 98 97 22
f 63 130 131
f 98 22 21
f 62 63 131
f 99 98 21
f 62 131 132
f 100 99 21
f 62 132 133
f 101 100 21
f 62 133 134
f 102 101 21
f 62 134 135
f 103 102 21
f 62 135 136
f 104 103 21
f 62 136 137
f 104 21 20
f 61 62 137
f 104 20 19
f 60 61 137
f 104 19 18
f 59 60 137
f 104 18 17
f 58 59 137
f 104 17 16
f 57 58 137
f 104 16 15
f 56 57 137
f 104 15 14
f 55 56 137
f 104 14 13
f 54 55 137
f 104 13 12
f 53 54 137
f 105 104 12
f 53 137 138
f 106 105 12
f 53 138 139
f 106 12 11
f 52 53 139
f 107 106 11
f 52 139 140
