o mesh
v -0.052000 -0.022000 -0.001500
v -0.052000 -0.022000 0.000500
v -0.052000 0.022000 -0.001500
v -0.052000 0.022000 0.000500
v -0.051995 -0.022196 -0.001500
v -0.051981 -0.022392 -0.001500
v -0.051957 -0.022587 -0.001500
v -0.051923 -0.022780 -0.001500
v -0.051880 -0.022972 -0.001500
v -0.051828 -0.023161 -0.001500
v -0.051766 -0.023348 -0.001500
v -0.051696 -0.023531 -0.001500
v -0.051616 -0.023710 -0.001500
v -0.051528 -0.023886 -0.001500
v -0.051431 -0.024056 -0.001500
v -0.051326 -0.024222 -0.001500
v -0.051213 -0.024383 -0.001500
v -0.051092 -0.024538 -0.001500
v -0.050964 -0.024686 -0.001500
v -0.050828 -0.024828 -0.001500
v -0.050686 -0.024964 -0.001500
v -0.050538 -0.025092 -0.001500
v -0.050383 -0.025213 -0.001500
v -0.050222 -0.025326 -0.001500
v -0.050056 -0.025431 -0.001500
v -0.049886 -0.025528 -0.001500
v -0.049710 -0.025616 -0.001500
v -0.049531 -0.025696 -0.001500
v -0.049348 -0.025766 -0.001500
v -0.049161 -0.025828 -0.001500
v -0.048972 -0.025880 -0.001500
v -0.048780 -0.025923 -0.001500
v -0.048587 -0.025957 -0.001500
v -0.048392 -0.025981 -0.001500
v -0.048196 -0.025995 -0.001500
v -0.048000 -0.026000 -0.001500
v -0.048000 -0.026000 0.000500
v -0.048196 -0.025995 0.000500
v -0.048392 -0.025981 0.000500
v -0.048587 -0.025957 0.000500
v -0.048780 -0.025923 0.000500
v -0.048972 -0.025880 0.000500
v -0.049161 -0.025828 0.000500
v -0.049348 -0.025766 0.000500
v -0.049531 -0.025696 0.000500
v -0.049710 -0.025616 0.000500
v -0.049886 -0.025528 0.000500
v -0.050056 -0.025431 0.000500
v -0.050222 -0.025326 0.000500
v -0.050383 -0.025213 0.000500
v -0.050538 -0.025092 0.000500
v -0.050686 -0.024964 0.000500
v -0.050828 -0.024828 0.000500
v -0.050964 -0.024686 0.000500
v -0.051092 -0.024538 0.000500
v -0.051213 -0.024383 0.000500
v -0.051326 -0.024222 0.000500
v -0.051431 -0.024056 0.000500
v -0.051528 -0.023886 0.000500
v -0.051616 -0.023710 0.000500
v -0.051696 -0.023531 0.000500
v -0.051766 -0.023348 0.000500
v -0.051828 -0.023161 0.000500
v -0.051880 -0.022972 0.000500
v -0.051923 -0.022780 0.000500
v -0.051957 -0.022587 0.000500
v -0.051981 -0.022392 0.000500
v -0.051995 -0.022196 0.000500
v -0.051000 -0.022000 0.001500
v -0.051000 0.022000 0.001500
v 0.048000 -0.026000 -0.001500
v 0.052000 -0.022000 -0.001500
v 0.051995 -0.022196 -0.001500
v 0.051981 -0.022392 -0.001500
v 0.051957 -0.022587 -0.001500
v 0.051923 -0.022780 -0.001500
v 0.051880 -0.022972 -0.001500
v 0.051828 -0.023161 -0.001500
v 0.051766 -0.023348 -0.001500
v 0.051696 -0.023531 -0.001500
v 0.051616 -0.023710 -0.001500
v 0.051528 -0.023886 -0.001500
v 0.051431 -0.024056 -0.001500
v 0.051326 -0.024222 -0.001500
v 0.051213 -0.024383 -0.001500
v 0.051092 -0.024538 -0.001500
v 0.050964 -0.024686 -0.001500
v 0.050828 -0.024828 -0.001500
v 0.050686 -0.024964 -0.001500
v 0.050538 -0.025092 -0.001500
v 0.050383 -0.025213 -0.001500
v 0.050222 -0.025326 -0.001500
v 0.050056 -0.025431 -0.001500
v 0.049886 -0.025528 -0.001500
v 0.049710 -0.025616 -0.001500
v 0.049531 -0.025696 -0.001500
v 0.049348 -0.025766 -0.001500
v 0.049161 -0.025828 -0.001500
v 0.048972 -0.025880 -0.001500
v 0.048780 -0.025923 -0.001500
v 0.048587 -0.025957 -0.001500
v 0.048392 -0.025981 -0.001500
v 0.048196 -0.025995 -0.001500
v 0.052000 0.022000 -0.001500
v 0.051995 0.022196 -0.001500
v 0.051981 0.022392 -0.001500
v 0.051957 0.022587 -0.001500
v 0.051923 0.022780 -0.001500
v 0.051880 0.022972 -0.001500
v 0.051828 0.023161 -0.001500
v 0.051766 0.023348 -0.001500
v 0.051696 0.023531 -0.001500
v 0.051616 0.023710 -0.001500
v 0.051528 0.023886 -0.001500
v 0.051431 0.024056 -0.001500
v 0.051326 0.024222 -0.001500
v 0.051213 0.024383 -0.001500
v 0.051092 0.024538 -0.001500
v 0.050964 0.024686 -0.001500
v 0.050828 0.024828 -0.001500
v 0.050686 0.024964 -0.001500
v 0.050538 0.025092 -0.001500
v 0.050383 0.025213 -0.001500
v 0.050222 0.025326 -0.001500
v 0.050056 0.025431 -0.001500
v 0.049886 0.025528 -0.001500
v 0.049710 0.025616 -0.001500
v 0.049531 0.025696 -0.001500
v 0.049348 0.025766 -0.001500
v 0.049161 0.025828 -0.001500
v 0.048972 0.025880 -0.001500
v 0.048780 0.025923 -0.001500
v 0.048587 0.025957 -0.001500
v 0.048392 0.025981 -0.001500
v 0.048196 0.025995 -0.001500
v 0.048000 0.026000 -0.001500
v -0.048000 0.026000 -0.001500
v -0.051995 0.022196 -0.001500
v -0.051981 0.022392 -0.001500
v -0.051957 0.022587 -0.001500
v -0.051923 0.022780 -0.001500
v -0.051880 0.022972 -0.001500
v -0.051828 0.023161 -0.001500
v -0.051766 0.023348 -0.001500
v -0.051696 0.023531 -0.001500
v -0.051616 0.023710 -0.001500
v -0.051528 0.023886 -0.001500
v -0.051431 0.024056 -0.001500
v -0.051326 0.024222 -0.001500
v -0.051213 0.024383 -0.001500
v -0.051092 0.024538 -0.001500
v -0.050964 0.024686 -0.001500
v -0.050828 0.024828 -0.001500
v -0.050686 0.024964 -0.001500
v -0.050538 0.025092 -0.001500
v -0.050383 0.025213 -0.001500
v -0.050222 0.025326 -0.001500
v -0.050056 0.025431 -0.001500
v -0.049886 0.025528 -0.001500
v -0.049710 0.025616 -0.001500
v -0.049531 0.025696 -0.001500
v -0.049348 0.025766 -0.001500
v -0.049161 0.025828 -0.001500
v -0.048972 0.025880 -0.001500
v -0.048780 0.025923 -0.001500
v -0.048587 0.025957 -0.001500
v -0.048392 0.025981 -0.001500
v -0.048196 0.025995 -0.001500
v 0.045000 -0.019000 -0.001500
v 0.045000 0.019000 -0.001500
v 0.002000 -0.019000 -0.001500
v 0.002000 -0.020225 -0.001500
v -0.002000 -0.020225 -0.001500
v -0.002000 -0.019000 -0.001500
v -0.045000 -0.019000 -0.001500
v -0.045000 0.019000 -0.001500
v -0.002000 0.019000 -0.001500
v -0.002000 0.020225 -0.001500
v 0.002000 0.020225 -0.001500
v 0.002000 0.019000 -0.001500
v -0.048000 0.026000 0.000500
v -0.051995 0.022196 0.000500
v -0.051981 0.022392 0.000500
v -0.051957 0.022587 0.000500
v -0.051923 0.022780 0.000500
v -0.051880 0.022972 0.000500
v -0.051828 0.023161 0.000500
v -0.051766 0.023348 0.000500
v -0.051696 0.023531 0.000500
v -0.051616 0.023710 0.000500
v -0.051528 0.023886 0.000500
v -0.051431 0.024056 0.000500
v -0.051326 0.024222 0.000500
v -0.051213 0.024383 0.000500
v -0.051092 0.024538 0.000500
v -0.050964 0.024686 0.000500
v -0.050828 0.024828 0.000500
v -0.050686 0.024964 0.000500
v -0.050538 0.025092 0.000500
v -0.050383 0.025213 0.000500
v -0.050222 0.025326 0.000500
v -0.050056 0.025431 0.000500
v -0.049886 0.025528 0.000500
v -0.049710 0.025616 0.000500
v -0.049531 0.025696 0.000500
v -0.049348 0.025766 0.000500
v -0.049161 0.025828 0.000500
v -0.048972 0.025880 0.000500
v -0.048780 0.025923 0.000500
v -0.048587 0.025957 0.000500
v -0.048392 0.025981 0.000500
v -0.048196 0.025995 0.000500
v -0.048000 -0.025000 0.001500
v -0.048147 -0.024996 0.001500
v -0.048294 -0.024986 0.001500
v -0.048440 -0.024968 0.001500
v -0.048585 -0.024942 0.001500
v -0.048729 -0.024910 0.001500
v -0.048871 -0.024871 0.001500
v -0.049011 -0.024825 0.001500
v -0.049148 -0.024772 0.001500
v -0.049283 -0.024712 0.001500
v -0.049414 -0.024646 0.001500
v -0.049542 -0.024573 0.001500
v -0.049667 -0.024494 0.001500
v -0.049787 -0.024410 0.001500
v -0.049903 -0.024319 0.001500
v -0.050015 -0.024223 0.001500
v -0.050121 -0.024121 0.001500
v -0.050223 -0.024015 0.001500
v -0.050319 -0.023903 0.001500
v -0.050410 -0.023787 0.001500
v -0.050494 -0.023667 0.001500
v -0.050573 -0.023542 0.001500
v -0.050646 -0.023414 0.001500
v -0.050712 -0.023283 0.001500
v -0.050772 -0.023148 0.001500
v -0.050825 -0.023011 0.001500
v -0.050871 -0.022871 0.001500
v -0.050910 -0.022729 0.001500
v -0.050942 -0.022585 0.001500
v -0.050968 -0.022440 0.001500
v -0.050986 -0.022294 0.001500
v -0.050996 -0.022147 0.001500
v -0.048338 -0.025651 0.000833
v -0.048674 -0.025604 0.000833
v -0.048308 -0.025319 0.001167
v -0.049003 -0.025527 0.000833
v -0.048612 -0.025277 0.001167
v -0.049325 -0.025419 0.000833
v -0.048912 -0.025206 0.001167
v -0.049634 -0.025282 0.000833
v -0.049204 -0.025108 0.001167
v -0.049930 -0.025117 0.000833
v -0.049486 -0.024984 0.001167
v -0.050210 -0.024926 0.000833
v -0.049755 -0.024834 0.001167
v -0.050470 -0.024710 0.000833
v -0.050009 -0.024660 0.001167
v -0.050710 -0.024470 0.000833
v -0.050246 -0.024463 0.001167
v -0.050926 -0.024210 0.000833
v -0.050463 -0.024246 0.001167
v -0.051117 -0.023930 0.000833
v -0.050660 -0.024009 0.001167
v -0.051282 -0.023634 0.000833
v -0.050834 -0.023755 0.001167
v -0.051419 -0.023325 0.000833
v -0.050984 -0.023486 0.001167
v -0.051527 -0.023003 0.000833
v -0.051108 -0.023204 0.001167
v -0.051604 -0.022674 0.000833
v -0.051206 -0.022912 0.001167
v -0.051651 -0.022338 0.000833
v -0.051277 -0.022612 0.001167
v -0.051319 -0.022308 0.001167
v 0.048000 -0.026000 0.000500
v 0.048000 -0.025000 0.001500
v 0.051000 -0.022000 0.001500
v 0.050996 -0.022147 0.001500
v 0.050986 -0.022294 0.001500
v 0.050968 -0.022440 0.001500
v 0.050942 -0.022585 0.001500
v 0.050910 -0.022729 0.001500
v 0.050871 -0.022871 0.001500
v 0.050825 -0.023011 0.001500
v 0.050772 -0.023148 0.001500
v 0.050712 -0.023283 0.001500
v 0.050646 -0.023414 0.001500
v 0.050573 -0.023542 0.001500
v 0.050494 -0.023667 0.001500
v 0.050410 -0.023787 0.001500
v 0.050319 -0.023903 0.001500
v 0.050223 -0.024015 0.001500
v 0.050121 -0.024121 0.001500
v 0.050015 -0.024223 0.001500
v 0.049903 -0.024319 0.001500
v 0.049787 -0.024410 0.001500
v 0.049667 -0.024494 0.001500
v 0.049542 -0.024573 0.001500
v 0.049414 -0.024646 0.001500
v 0.049283 -0.024712 0.001500
v 0.049148 -0.024772 0.001500
v 0.049011 -0.024825 0.001500
v 0.048871 -0.024871 0.001500
v 0.048729 -0.024910 0.001500
v 0.048585 -0.024942 0.001500
v 0.048440 -0.024968 0.001500
v 0.048294 -0.024986 0.001500
v 0.048147 -0.024996 0.001500
v 0.051000 0.022000 0.001500
v 0.048000 0.025000 0.001500
v 0.048147 0.024996 0.001500
v 0.048294 0.024986 0.001500
v 0.048440 0.024968 0.001500
v 0.048585 0.024942 0.001500
v 0.048729 0.024910 0.001500
v 0.048871 0.024871 0.001500
v 0.049011 0.024825 0.001500
v 0.049148 0.024772 0.001500
v 0.049283 0.024712 0.001500
v 0.049414 0.024646 0.001500
v 0.049542 0.024573 0.001500
v 0.049667 0.024494 0.001500
v 0.049787 0.024410 0.001500
v 0.049903 0.024319 0.001500
v 0.050015 0.024223 0.001500
v 0.050121 0.024121 0.001500
v 0.050223 0.024015 0.001500
v 0.050319 0.023903 0.001500
v 0.050410 0.023787 0.001500
v 0.050494 0.023667 0.001500
v 0.050573 0.023542 0.001500
v 0.050646 0.023414 0.001500
v 0.050712 0.023283 0.001500
v 0.050772 0.023148 0.001500
v 0.050825 0.023011 0.001500
v 0.050871 0.022871 0.001500
v 0.050910 0.022729 0.001500
v 0.050942 0.022585 0.001500
v 0.050968 0.022440 0.001500
v 0.050986 0.022294 0.001500
v 0.050996 0.022147 0.001500
v -0.048000 0.025000 0.001500
v -0.050996 0.022147 0.001500
v -0.050986 0.022294 0.001500
v -0.050968 0.022440 0.001500
v -0.050942 0.022585 0.001500
v -0.050910 0.022729 0.001500
v -0.050871 0.022871 0.001500
v -0.050825 0.023011 0.001500
v -0.050772 0.023148 0.001500
v -0.050712 0.023283 0.001500
v -0.050646 0.023414 0.001500
v -0.050573 0.023542 0.001500
v -0.050494 0.023667 0.001500
v -0.050410 0.023787 0.001500
v -0.050319 0.023903 0.001500
v -0.050223 0.024015 0.001500
v -0.050121 0.024121 0.001500
v -0.050015 0.024223 0.001500
v -0.049903 0.024319 0.001500
v -0.049787 0.024410 0.001500
v -0.049667 0.024494 0.001500
v -0.049542 0.024573 0.001500
v -0.049414 0.024646 0.001500
v -0.049283 0.024712 0.001500
v -0.049148 0.024772 0.001500
v -0.049011 0.024825 0.001500
v -0.048871 0.024871 0.001500
v -0.048729 0.024910 0.001500
v -0.048585 0.024942 0.001500
v -0.048440 0.024968 0.001500
v -0.048294 0.024986 0.001500
v -0.048147 0.024996 0.001500
v 0.045000 -0.019000 0.001500
v -0.045000 -0.019000 0.001500
v -0.045000 0.019000 0.001500
v 0.045000 0.019000 0.001500
v -0.051651 0.022338 0.000833
v -0.051604 0.022674 0.000833
v -0.051319 0.022308 0.001167
v -0.051527 0.023003 0.000833
v -0.051277 0.022612 0.001167
v -0.051419 0.023325 0.000833
v -0.051206 0.022912 0.001167
v -0.051282 0.023634 0.000833
v -0.051108 0.023204 0.001167
v -0.051117 0.023930 0.000833
v -0.050984 0.023486 0.001167
v -0.050926 0.024210 0.000833
v -0.050834 0.023755 0.001167
v -0.050710 0.024470 0.000833
v -0.050660 0.024009 0.001167
v -0.050470 0.024710 0.000833
v -0.050463 0.024246 0.001167
v -0.050210 0.024926 0.000833
v -0.050246 0.024463 0.001167
v -0.049930 0.025117 0.000833
v -0.050009 0.024660 0.001167
v -0.049634 0.025282 0.000833
v -0.049755 0.024834 0.001167
v -0.049325 0.025419 0.000833
v -0.049486 0.024984 0.001167
v -0.049003 0.025527 0.000833
v -0.049204 0.025108 0.001167
v -0.048674 0.025604 0.000833
v -0.048912 0.025206 0.001167
v -0.048338 0.025651 0.000833
v -0.048612 0.025277 0.001167
v -0.048308 0.025319 0.001167
v 0.048000 0.026000 0.000500
v 0.052000 -0.022000 0.000500
v 0.051995 -0.022196 0.000500
v 0.051981 -0.022392 0.000500
v 0.051957 -0.022587 0.000500
v 0.051923 -0.022780 0.000500
v 0.051880 -0.022972 0.000500
v 0.051828 -0.023161 0.000500
v 0.051766 -0.023348 0.000500
v 0.051696 -0.023531 0.000500
v 0.051616 -0.023710 0.000500
v 0.051528 -0.023886 0.000500
v 0.051431 -0.024056 0.000500
v 0.051326 -0.024222 0.000500
v 0.051213 -0.024383 0.000500
v 0.051092 -0.024538 0.000500
v 0.050964 -0.024686 0.000500
v 0.050828 -0.024828 0.000500
v 0.050686 -0.024964 0.000500
v 0.050538 -0.025092 0.000500
v 0.050383 -0.025213 0.000500
v 0.050222 -0.025326 0.000500
v 0.050056 -0.025431 0.000500
v 0.049886 -0.025528 0.000500
v 0.049710 -0.025616 0.000500
v 0.049531 -0.025696 0.000500
v 0.049348 -0.025766 0.000500
v 0.049161 -0.025828 0.000500
v 0.048972 -0.025880 0.000500
v 0.048780 -0.025923 0.000500
v 0.048587 -0.025957 0.000500
v 0.048392 -0.025981 0.000500
v 0.048196 -0.025995 0.000500
v 0.052000 0.022000 0.000500
v 0.048196 0.025995 0.000500
v 0.048392 0.025981 0.000500
v 0.048587 0.025957 0.000500
v 0.048780 0.025923 0.000500
v 0.048972 0.025880 0.000500
v 0.049161 0.025828 0.000500
v 0.049348 0.025766 0.000500
v 0.049531 0.025696 0.000500
v 0.049710 0.025616 0.000500
v 0.049886 0.025528 0.000500
v 0.050056 0.025431 0.000500
v 0.050222 0.025326 0.000500
v 0.050383 0.025213 0.000500
v 0.050538 0.025092 0.000500
v 0.050686 0.024964 0.000500
v 0.050828 0.024828 0.000500
v 0.050964 0.024686 0.000500
v 0.051092 0.024538 0.000500
v 0.051213 0.024383 0.000500
v 0.051326 0.024222 0.000500
v 0.051431 0.024056 0.000500
v 0.051528 0.023886 0.000500
v 0.051616 0.023710 0.000500
v 0.051696 0.023531 0.000500
v 0.051766 0.023348 0.000500
v 0.051828 0.023161 0.000500
v 0.051880 0.022972 0.000500
v 0.051923 0.022780 0.000500
v 0.051957 0.022587 0.000500
v 0.051981 0.022392 0.000500
v 0.051995 0.022196 0.000500
v 0.045000 -0.019000 -0.004750
v 0.045000 0.019000 -0.004750
v -0.045000 0.019000 -0.004750
v -0.002000 0.019000 -0.001890
v 0.002000 0.019000 -0.001890
v 0.002000 0.020225 -0.001890
v -0.002000 0.020225 -0.001890
v -0.045000 -0.019000 -0.004750
v -0.002000 -0.019000 -0.001890
v 0.002000 -0.019000 -0.001890
v -0.002000 -0.020225 -0.001890
v 0.002000 -0.020225 -0.001890
v 0.051651 -0.022338 0.000833
v 0.051604 -0.022674 0.000833
v 0.051319 -0.022308 0.001167
v 0.051527 -0.023003 0.000833
v 0.051277 -0.022612 0.001167
v 0.051419 -0.023325 0.000833
v 0.051206 -0.022912 0.001167
v 0.051282 -0.023634 0.000833
v 0.051108 -0.023204 0.001167
v 0.051117 -0.023930 0.000833
v 0.050984 -0.023486 0.001167
v 0.050926 -0.024210 0.000833
v 0.050834 -0.023755 0.001167
v 0.050710 -0.024470 0.000833
v 0.050660 -0.024009 0.001167
v 0.050470 -0.024710 0.000833
v 0.050463 -0.024246 0.001167
v 0.050210 -0.024926 0.000833
v 0.050246 -0.024463 0.001167
v 0.049930 -0.025117 0.000833
v 0.050009 -0.024660 0.001167
v 0.049634 -0.025282 0.000833
v 0.049755 -0.024834 0.001167
v 0.049325 -0.025419 0.000833
v 0.049486 -0.024984 0.001167
v 0.049003 -0.025527 0.000833
v 0.049204 -0.025108 0.001167
v 0.048674 -0.025604 0.000833
v 0.048912 -0.025206 0.001167
v 0.048338 -0.025651 0.000833
v 0.048612 -0.025277 0.001167
v 0.048308 -0.025319 0.001167
v 0.048338 0.025651 0.000833
v 0.048674 0.025604 0.000833
v 0.048308 0.025319 0.001167
v 0.049003 0.025527 0.000833
v 0.048612 0.025277 0.001167
v 0.049325 0.025419 0.000833
v 0.048912 0.025206 0.001167
v 0.049634 0.025282 0.000833
v 0.049204 0.025108 0.001167
v 0.049930 0.025117 0.000833
v 0.049486 0.024984 0.001167
v 0.050210 0.024926 0.000833
v 0.049755 0.024834 0.001167
v 0.050470 0.024710 0.000833
v 0.050009 0.024660 0.001167
v 0.050710 0.024470 0.000833
v 0.050246 0.024463 0.001167
v 0.050926 0.024210 0.000833
v 0.050463 0.024246 0.001167
v 0.051117 0.023930 0.000833
v 0.050660 0.024009 0.001167
v 0.051282 0.023634 0.000833
v 0.050834 0.023755 0.001167
v 0.051419 0.023325 0.000833
v 0.050984 0.023486 0.001167
v 0.051527 0.023003 0.000833
v 0.051108 0.023204 0.001167
v 0.051604 0.022674 0.000833
v 0.051206 0.022912 0.001167
v 0.051651 0.022338 0.000833
v 0.051277 0.022612 0.001167
v 0.051319 0.022308 0.001167
v 0.045000 -0.019000 -0.000750
v 0.002000 -0.019000 -0.000750
v 0.002000 -0.019000 0.000810
v -0.002000 -0.019000 0.000810
v -0.002000 -0.019000 -0.000750
v -0.045000 -0.019000 -0.000750
v 0.045000 -0.014401 -0.000750
v 0.045000 -0.015515 -0.000300
v 0.045000 -0.015121 0.000673
v 0.045000 -0.011599 -0.000750
v 0.045000 -0.002401 -0.000750
v 0.045000 -0.003515 -0.000300
v 0.045000 -0.003121 0.000673
v 0.045000 0.000401 -0.000750
v 0.045000 0.009599 -0.000750
v 0.045000 0.008485 -0.000300
v 0.045000 0.008879 0.000673
v 0.045000 0.012401 -0.000750
v 0.045000 0.019000 -0.000750
v 0.002000 0.019000 -0.000750
v 0.002000 0.019000 0.000810
v -0.002000 0.019000 0.000810
v -0.002000 0.019000 -0.000750
v -0.045000 0.019000 -0.000750
v -0.045000 -0.014401 -0.000750
v -0.045000 -0.015515 -0.000300
v -0.045000 -0.015121 0.000673
v -0.045000 -0.011599 -0.000750
v -0.045000 -0.002401 -0.000750
v -0.045000 -0.003515 -0.000300
v -0.045000 -0.003121 0.000673
v -0.045000 0.000401 -0.000750
v -0.045000 0.009599 -0.000750
v -0.045000 0.008485 -0.000300
v -0.045000 0.008879 0.000673
v -0.045000 0.012401 -0.000750
v 0.043500 -0.017500 -0.004750
v -0.043500 -0.017500 -0.004750
v -0.043500 0.017500 -0.004750
v 0.043500 0.017500 -0.004750
v -0.002000 -0.017500 -0.000750
v -0.043500 -0.017500 -0.000750
v -0.043500 -0.014401 -0.000750
v -0.002000 -0.017500 -0.001890
v -0.002000 -0.011580 -0.001890
v -0.002000 -0.015515 -0.000300
v -0.002000 -0.015121 0.000673
v -0.002000 -0.010485 -0.001200
v -0.002000 -0.010764 -0.001890
v -0.002000 0.000420 -0.001890
v -0.002000 -0.003515 -0.000300
v -0.002000 -0.003121 0.000673
v -0.002000 0.001515 -0.001200
v -0.002000 0.001236 -0.001890
v -0.002000 0.012420 -0.001890
v -0.002000 0.008485 -0.000300
v -0.002000 0.008879 0.000673
v -0.002000 0.013515 -0.001200
v -0.002000 0.013236 -0.001890
v -0.002000 0.017500 -0.001890
v -0.002000 0.017500 -0.000750
v 0.002000 -0.017500 -0.000750
v 0.002000 -0.017500 -0.001890
v 0.002000 -0.011580 -0.001890
v 0.002000 -0.015515 -0.000300
v 0.002000 -0.015121 0.000673
v 0.002000 -0.010485 -0.001200
v 0.002000 -0.010764 -0.001890
v 0.002000 0.000420 -0.001890
v 0.002000 -0.003515 -0.000300
v 0.002000 -0.003121 0.000673
v 0.002000 0.001515 -0.001200
v 0.002000 0.001236 -0.001890
v 0.002000 0.012420 -0.001890
v 0.002000 0.008485 -0.000300
v 0.002000 0.008879 0.000673
v 0.002000 0.013515 -0.001200
v 0.002000 0.013236 -0.001890
v 0.002000 0.017500 -0.001890
v 0.002000 0.017500 -0.000750
v 0.043500 -0.014401 -0.000750
v 0.043500 -0.017500 -0.000750
v 0.043500 0.017500 -0.000750
v 0.043500 0.012401 -0.000750
v 0.043500 0.013515 -0.001200
v 0.043500 0.009599 -0.000750
v 0.043500 0.013121 -0.002173
v -0.043500 0.013121 -0.002173
v -0.043500 0.009599 -0.000750
v 0.043500 0.000401 -0.000750
v 0.043500 0.001515 -0.001200
v 0.043500 -0.002401 -0.000750
v 0.043500 0.001121 -0.002173
v -0.043500 0.001121 -0.002173
v -0.043500 -0.002401 -0.000750
v 0.043500 -0.011599 -0.000750
v 0.043500 -0.010485 -0.001200
v 0.043500 -0.010879 -0.002173
v -0.043500 -0.010879 -0.002173
v -0.043500 0.012401 -0.000750
v -0.043500 0.017500 -0.000750
v -0.043500 0.013515 -0.001200
v -0.043500 0.000401 -0.000750
v -0.043500 0.001515 -0.001200
v -0.043500 -0.011599 -0.000750
v -0.043500 -0.010485 -0.001200
f 2 3 1
f 2 4 3
f 68 2 1
f 68 1 5
f 67 5 6
f 67 68 5
f 66 6 7
f 66 67 6
f 65 7 8
f 65 66 7
f 64 8 9
f 64 65 8
f 63 9 10
f 63 64 9
f 62 10 11
f 62 63 10
f 61 11 12
f 61 62 11
f 60 61 12
f 60 12 13
f 59 13 14
f 59 60 13
f 58 14 15
f 58 59 14
f 57 15 16
f 57 58 15
f 56 16 17
f 56 57 16
f 55 17 18
f 55 56 17
f 54 18 19
f 54 55 18
f 53 19 20
f 53 54 19
f 52 20 21
f 52 53 20
f 51 21 22
f 51 52 21
f 50 22 23
f 50 51 22
f 49 23 24
f 49 50 23
f 48 24 25
f 48 49 24
f 47 25 26
f 47 48 25
f 46 26 27
f 46 47 26
f 45 27 28
f 45 46 27
f 44 28 29
f 44 45 28
f 43 29 30
f 43 44 29
f 42 30 31
f 42 43 30
f 41 31 32
f 41 42 31
f 40 32 33
f 40 41 32
f 39 33 34
f 39 40 33
f 38 34 35
f 38 39 34
f 37 35 36
f 37 38 35
f 70 2 69
f 70 4 2
f 1 6 5
f 1 7 6
f 1 8 7
f 1 9 8
f 1 10 9
f 1 11 10
f 1 12 11
f 1 13 12
f 1 14 13
f 1 15 14
f 1 16 15
f 1 17 16
f 1 18 17
f 1 19 18
f 1 20 19
f 1 21 20
f 1 22 21
f 1 23 22
f 1 24 23
f 1 25 24
f 1 26 25
f 1 27 26
f 1 28 27
f 1 29 28
f 1 30 29
f 1 31 30
f 1 32 31
f 1 33 32
f 1 34 33
f 1 35 34
f 1 36 35
f 175 36 1
f 176 1 3
f 176 175 1
f 154 152 153
f 158 156 157
f 173 36 175
f 137 3 138
f 137 138 139
f 137 139 140
f 137 140 141
f 137 141 142
f 137 142 143
f 137 143 144
f 137 144 145
f 137 145 146
f 137 146 147
f 137 147 148
f 137 148 149
f 137 149 150
f 137 150 151
f 137 151 152
f 137 154 155
f 137 155 156
f 137 158 159
f 137 159 160
f 137 160 161
f 137 161 162
f 137 162 163
f 137 163 164
f 137 164 165
f 137 165 166
f 137 166 167
f 137 167 168
f 137 176 3
f 137 156 158
f 137 152 154
f 174 173 175
f 178 177 176
f 178 176 137
f 71 36 173
f 71 173 172
f 100 101 102
f 98 100 102
f 98 99 100
f 96 97 98
f 93 94 95
f 92 96 98
f 92 93 95
f 92 95 96
f 91 92 98
f 90 98 102
f 90 91 98
f 90 102 103
f 169 172 171
f 169 71 172
f 86 87 88
f 86 88 89
f 82 86 89
f 82 83 84
f 82 84 85
f 82 85 86
f 81 82 89
f 81 89 90
f 77 78 79
f 77 79 80
f 76 77 80
f 72 90 103
f 72 73 74
f 72 74 75
f 72 75 76
f 72 80 81
f 72 81 90
f 72 76 80
f 72 103 71
f 72 71 169
f 170 180 179
f 104 169 170
f 104 72 169
f 136 170 179
f 136 104 170
f 106 105 104
f 108 107 106
f 110 109 108
f 130 132 131
f 130 133 132
f 130 134 133
f 130 135 134
f 130 136 135
f 111 110 108
f 112 108 106
f 112 111 108
f 113 112 106
f 127 129 128
f 127 130 129
f 115 114 113
f 124 126 125
f 124 127 126
f 117 115 113
f 117 116 115
f 119 118 117
f 121 123 122
f 120 130 127
f 120 127 124
f 120 117 113
f 120 119 117
f 120 123 121
f 120 104 136
f 120 106 104
f 120 124 123
f 120 136 130
f 120 113 106
f 136 178 137
f 136 179 178
f 182 3 4
f 182 138 3
f 183 139 138
f 183 138 182
f 184 140 139
f 184 139 183
f 185 141 140
f 185 140 184
f 186 142 141
f 186 141 185
f 187 143 142
f 187 142 186
f 188 144 143
f 188 143 187
f 189 145 144
f 189 144 188
f 190 145 189
f 190 146 145
f 191 147 146
f 191 146 190
f 192 148 147
f 192 147 191
f 193 149 148
f 193 148 192
f 194 150 149
f 194 149 193
f 195 151 150
f 195 150 194
f 196 152 151
f 196 151 195
f 197 153 152
f 197 152 196
f 198 154 153
f 198 153 197
f 199 155 154
f 199 154 198
f 200 156 155
f 200 155 199
f 201 157 156
f 201 156 200
f 202 158 157
f 202 157 201
f 203 159 158
f 203 158 202
f 204 160 159
f 204 159 203
f 205 161 160
f 205 160 204
f 206 162 161
f 206 161 205
f 207 163 162
f 207 162 206
f 208 164 163
f 208 163 207
f 209 165 164
f 209 164 208
f 210 166 165
f 210 165 209
f 211 167 166
f 211 166 210
f 212 168 167
f 212 167 211
f 181 137 168
f 181 168 212
f 245 38 37
f 245 39 38
f 245 40 39
f 246 41 40
f 246 42 41
f 246 40 245
f 247 37 213
f 247 213 214
f 247 214 215
f 247 215 216
f 247 245 37
f 248 43 42
f 248 44 43
f 248 42 246
f 249 216 217
f 249 217 218
f 249 246 245
f 249 247 216
f 249 245 247
f 250 45 44
f 250 44 248
f 251 218 219
f 251 219 220
f 251 249 218
f 251 248 246
f 251 246 249
f 252 46 45
f 252 47 46
f 252 45 250
f 253 251 220
f 253 250 248
f 253 220 221
f 253 248 251
f 254 48 47
f 254 49 48
f 254 47 252
f 255 252 250
f 255 250 253
f 255 221 222
f 255 222 223
f 255 253 221
f 256 50 49
f 256 51 50
f 256 49 254
f 257 254 252
f 257 255 223
f 257 252 255
f 257 223 224
f 257 224 225
f 258 52 51
f 258 53 52
f 258 51 256
f 259 225 226
f 259 226 227
f 259 256 254
f 259 254 257
f 259 257 225
f 260 54 53
f 260 55 54
f 260 53 258
f 261 256 259
f 261 258 256
f 261 227 228
f 261 228 229
f 261 259 227
f 262 56 55
f 262 57 56
f 262 55 260
f 263 260 258
f 263 261 229
f 263 229 230
f 263 230 231
f 263 258 261
f 264 58 57
f 264 59 58
f 264 57 262
f 265 263 231
f 265 262 260
f 265 231 232
f 265 232 233
f 265 260 263
f 266 60 59
f 266 61 60
f 266 59 264
f 267 262 265
f 267 233 234
f 267 234 235
f 267 264 262
f 267 265 233
f 268 62 61
f 268 61 266
f 269 264 267
f 269 266 264
f 269 235 236
f 269 236 237
f 269 267 235
f 270 63 62
f 270 64 63
f 270 62 268
f 271 269 237
f 271 237 238
f 271 266 269
f 271 268 266
f 272 65 64
f 272 66 65
f 272 64 270
f 273 268 271
f 273 238 239
f 273 239 240
f 273 271 238
f 273 270 268
f 274 66 272
f 274 67 66
f 274 68 67
f 274 2 68
f 275 272 270
f 275 273 240
f 275 240 241
f 275 241 242
f 275 270 273
f 276 2 274
f 276 275 242
f 276 69 2
f 276 242 243
f 276 243 244
f 276 244 69
f 276 274 272
f 276 272 275
f 277 37 36
f 277 36 71
f 213 215 214
f 213 216 215
f 213 217 216
f 213 218 217
f 213 219 218
f 213 220 219
f 213 221 220
f 213 222 221
f 213 223 222
f 213 224 223
f 213 225 224
f 213 226 225
f 213 227 226
f 213 228 227
f 213 229 228
f 213 230 229
f 213 231 230
f 213 232 231
f 213 233 232
f 213 234 233
f 213 235 234
f 213 236 235
f 213 237 236
f 213 238 237
f 213 239 238
f 213 240 239
f 213 241 240
f 213 242 241
f 213 243 242
f 213 244 243
f 213 69 244
f 377 69 213
f 354 353 352
f 358 357 356
f 378 70 69
f 378 69 377
f 363 362 361
f 344 345 70
f 344 346 345
f 344 347 346
f 344 348 347
f 344 349 348
f 344 350 349
f 344 351 350
f 344 352 351
f 344 70 378
f 344 355 354
f 344 356 355
f 344 359 358
f 344 360 359
f 344 354 352
f 344 361 360
f 344 364 363
f 344 365 364
f 344 366 365
f 344 367 366
f 344 368 367
f 344 369 368
f 344 370 369
f 344 371 370
f 344 372 371
f 344 373 372
f 344 374 373
f 344 375 374
f 344 358 356
f 344 363 361
f 307 309 308
f 304 306 305
f 303 307 306
f 303 306 304
f 300 302 301
f 299 302 300
f 298 302 299
f 297 302 298
f 297 303 302
f 295 297 296
f 376 377 213
f 376 213 278
f 292 294 293
f 291 294 292
f 291 295 294
f 290 295 291
f 289 295 290
f 286 288 287
f 286 289 288
f 285 289 286
f 283 285 284
f 279 303 297
f 279 295 289
f 279 289 285
f 279 285 283
f 279 281 280
f 279 282 281
f 279 283 282
f 279 310 309
f 279 278 310
f 279 297 295
f 279 309 307
f 279 307 303
f 279 376 278
f 311 379 376
f 311 376 279
f 312 344 378
f 312 378 379
f 312 379 311
f 314 313 312
f 317 316 315
f 318 317 315
f 338 340 339
f 338 341 340
f 337 341 338
f 320 318 315
f 320 315 314
f 320 319 318
f 322 321 320
f 333 335 334
f 333 336 335
f 333 337 336
f 324 323 322
f 330 337 333
f 330 332 331
f 330 333 332
f 327 324 322
f 327 325 324
f 327 326 325
f 329 341 337
f 329 337 330
f 329 342 341
f 328 342 329
f 328 312 311
f 328 314 312
f 328 320 314
f 328 322 320
f 328 327 322
f 328 343 342
f 328 311 343
f 380 182 4
f 380 183 182
f 380 184 183
f 381 185 184
f 381 186 185
f 381 184 380
f 382 4 70
f 382 70 345
f 382 345 346
f 382 346 347
f 382 380 4
f 383 187 186
f 383 188 187
f 383 186 381
f 384 347 348
f 384 348 349
f 384 381 380
f 384 382 347
f 384 380 382
f 385 189 188
f 385 188 383
f 386 349 350
f 386 350 351
f 386 384 349
f 386 383 381
f 386 381 384
f 387 190 189
f 387 191 190
f 387 189 385
f 388 386 351
f 388 385 383
f 388 351 352
f 388 383 386
f 389 192 191
f 389 193 192
f 389 191 387
f 390 387 385
f 390 385 388
f 390 352 353
f 390 353 354
f 390 388 352
f 391 194 193
f 391 195 194
f 391 193 389
f 392 389 387
f 392 390 354
f 392 387 390
f 392 354 355
f 392 355 356
f 393 196 195
f 393 197 196
f 393 195 391
f 394 356 357
f 394 357 358
f 394 391 389
f 394 389 392
f 394 392 356
f 395 198 197
f 395 199 198
f 395 197 393
f 396 391 394
f 396 393 391
f 396 358 359
f 396 359 360
f 396 394 358
f 397 200 199
f 397 201 200
f 397 199 395
f 398 395 393
f 398 396 360
f 398 360 361
f 398 361 362
f 398 393 396
f 399 202 201
f 399 203 202
f 399 201 397
f 400 398 362
f 400 397 395
f 400 362 363
f 400 363 364
f 400 395 398
f 401 204 203
f 401 205 204
f 401 203 399
f 402 397 400
f 402 364 365
f 402 365 366
f 402 399 397
f 402 400 364
f 403 206 205
f 403 205 401
f 404 399 402
f 404 401 399
f 404 366 367
f 404 367 368
f 404 402 366
f 405 207 206
f 405 208 207
f 405 206 403
f 406 404 368
f 406 368 369
f 406 401 404
f 406 403 401
f 407 209 208
f 407 210 209
f 407 208 405
f 408 403 406
f 408 369 370
f 408 370 371
f 408 406 369
f 408 405 403
f 409 210 407
f 409 211 210
f 409 212 211
f 409 181 212
f 410 407 405
f 410 408 371
f 410 371 372
f 410 372 373
f 410 405 408
f 411 181 409
f 411 410 373
f 411 344 181
f 411 373 374
f 411 374 375
f 411 375 344
f 411 409 407
f 411 407 410
f 412 137 181
f 412 136 137
f 414 72 413
f 414 73 72
f 415 74 73
f 415 73 414
f 416 75 74
f 416 74 415
f 417 76 75
f 417 75 416
f 418 77 76
f 418 76 417
f 419 78 77
f 419 77 418
f 420 79 78
f 420 78 419
f 421 80 79
f 421 79 420
f 422 80 421
f 422 81 80
f 423 82 81
f 423 81 422
f 424 83 82
f 424 82 423
f 425 84 83
f 425 83 424
f 426 85 84
f 426 84 425
f 427 86 85
f 427 85 426
f 428 87 86
f 428 86 427
f 429 88 87
f 429 87 428
f 430 89 88
f 430 88 429
f 431 90 89
f 431 89 430
f 432 91 90
f 432 90 431
f 433 92 91
f 433 91 432
f 434 93 92
f 434 92 433
f 435 94 93
f 435 93 434
f 436 95 94
f 436 94 435
f 437 96 95
f 437 95 436
f 438 97 96
f 438 96 437
f 439 98 97
f 439 97 438
f 440 99 98
f 440 98 439
f 441 100 99
f 441 99 440
f 442 101 100
f 442 100 441
f 443 102 101
f 443 101 442
f 444 103 102
f 444 102 443
f 277 71 103
f 277 103 444
f 476 445 104
f 476 104 105
f 475 105 106
f 475 476 105
f 474 106 107
f 474 475 106
f 473 107 108
f 473 474 107
f 472 108 109
f 472 473 108
f 471 109 110
f 471 472 109
f 470 110 111
f 470 471 110
f 469 111 112
f 469 470 111
f 468 469 112
f 468 112 113
f 467 113 114
f 467 468 113
f 466 114 115
f 466 467 114
f 465 115 116
f 465 466 115
f 464 116 117
f 464 465 116
f 463 117 118
f 463 464 117
f 462 118 119
f 462 463 118
f 461 119 120
f 461 462 119
f 460 120 121
f 460 461 120
f 459 121 122
f 459 460 121
f 458 122 123
f 458 459 122
f 457 123 124
f 457 458 123
f 456 124 125
f 456 457 124
f 455 125 126
f 455 456 125
f 454 126 127
f 454 455 126
f 453 127 128
f 453 454 127
f 452 128 129
f 452 453 128
f 451 129 130
f 451 452 129
f 450 130 131
f 450 451 130
f 449 131 132
f 449 450 131
f 448 132 133
f 448 449 132
f 447 133 134
f 447 448 133
f 446 134 135
f 446 447 134
f 412 135 136
f 412 446 135
f 413 72 104
f 413 104 445
f 169 477 478
f 169 478 170
f 480 479 176
f 177 480 176
f 170 481 180
f 170 478 481
f 478 479 480
f 478 480 481
f 180 482 179
f 180 481 482
f 179 482 483
f 179 483 178
f 177 178 483
f 177 483 480
f 175 479 484
f 175 176 479
f 485 175 484
f 174 175 485
f 169 171 486
f 169 486 477
f 477 485 484
f 477 486 485
f 173 485 487
f 173 174 485
f 172 487 488
f 172 173 487
f 172 488 486
f 172 486 171
f 213 277 278
f 213 37 277
f 312 181 344
f 312 412 181
f 489 414 413
f 489 415 414
f 489 416 415
f 490 417 416
f 490 418 417
f 490 416 489
f 491 413 279
f 491 279 280
f 491 280 281
f 491 281 282
f 491 489 413
f 492 419 418
f 492 420 419
f 492 418 490
f 493 282 283
f 493 283 284
f 493 490 489
f 493 491 282
f 493 489 491
f 494 421 420
f 494 420 492
f 495 284 285
f 495 285 286
f 495 493 284
f 495 492 490
f 495 490 493
f 496 422 421
f 496 423 422
f 496 421 494
f 497 495 286
f 497 494 492
f 497 286 287
f 497 492 495
f 498 424 423
f 498 425 424
f 498 423 496
f 499 496 494
f 499 494 497
f 499 287 288
f 499 288 289
f 499 497 287
f 500 426 425
f 500 427 426
f 500 425 498
f 501 498 496
f 501 499 289
f 501 496 499
f 501 289 290
f 501 290 291
f 502 428 427
f 502 429 428
f 502 427 500
f 503 291 292
f 503 292 293
f 503 500 498
f 503 498 501
f 503 501 291
f 504 430 429
f 504 431 430
f 504 429 502
f 505 500 503
f 505 502 500
f 505 293 294
f 505 294 295
f 505 503 293
f 506 432 431
f 506 433 432
f 506 431 504
f 507 504 502
f 507 505 295
f 507 295 296
f 507 296 297
f 507 502 505
f 508 434 433
f 508 435 434
f 508 433 506
f 509 507 297
f 509 506 504
f 509 297 298
f 509 298 299
f 509 504 507
f 510 436 435
f 510 437 436
f 510 435 508
f 511 506 509
f 511 299 300
f 511 300 301
f 511 508 506
f 511 509 299
f 512 438 437
f 512 437 510
f 513 508 511
f 513 510 508
f 513 301 302
f 513 302 303
f 513 511 301
f 514 439 438
f 514 440 439
f 514 438 512
f 515 513 303
f 515 303 304
f 515 510 513
f 515 512 510
f 516 441 440
f 516 442 441
f 516 440 514
f 517 512 515
f 517 304 305
f 517 305 306
f 517 515 304
f 517 514 512
f 518 442 516
f 518 443 442
f 518 444 443
f 518 277 444
f 519 516 514
f 519 517 306
f 519 306 307
f 519 307 308
f 519 514 517
f 520 277 518
f 520 519 308
f 520 278 277
f 520 308 309
f 520 309 310
f 520 310 278
f 520 518 516
f 520 516 519
f 521 446 412
f 521 447 446
f 521 448 447
f 522 449 448
f 522 450 449
f 522 448 521
f 523 412 312
f 523 312 313
f 523 313 314
f 523 314 315
f 523 521 412
f 524 451 450
f 524 452 451
f 524 450 522
f 525 315 316
f 525 316 317
f 525 522 521
f 525 523 315
f 525 521 523
f 526 453 452
f 526 452 524
f 527 317 318
f 527 318 319
f 527 525 317
f 527 524 522
f 527 522 525
f 528 454 453
f 528 455 454
f 528 453 526
f 529 527 319
f 529 526 524
f 529 319 320
f 529 524 527
f 530 456 455
f 530 457 456
f 530 455 528
f 531 528 526
f 531 526 529
f 531 320 321
f 531 321 322
f 531 529 320
f 532 458 457
f 532 459 458
f 532 457 530
f 533 530 528
f 533 531 322
f 533 528 531
f 533 322 323
f 533 323 324
f 534 460 459
f 534 461 460
f 534 459 532
f 535 324 325
f 535 325 326
f 535 532 530
f 535 530 533
f 535 533 324
f 536 462 461
f 536 463 462
f 536 461 534
f 537 532 535
f 537 534 532
f 537 326 327
f 537 327 328
f 537 535 326
f 538 464 463
f 538 465 464
f 538 463 536
f 539 536 534
f 539 537 328
f 539 328 329
f 539 329 330
f 539 534 537
f 540 466 465
f 540 467 466
f 540 465 538
f 541 539 330
f 541 538 536
f 541 330 331
f 541 331 332
f 541 536 539
f 542 468 467
f 542 469 468
f 542 467 540
f 543 538 541
f 543 332 333
f 543 333 334
f 543 540 538
f 543 541 332
f 544 470 469
f 544 469 542
f 545 540 543
f 545 542 540
f 545 334 335
f 545 335 336
f 545 543 334
f 546 471 470
f 546 472 471
f 546 470 544
f 547 545 336
f 547 336 337
f 547 542 545
f 547 544 542
f 548 473 472
f 548 474 473
f 548 472 546
f 549 544 547
f 549 337 338
f 549 338 339
f 549 547 337
f 549 546 544
f 550 474 548
f 550 475 474
f 550 476 475
f 550 445 476
f 551 548 546
f 551 549 339
f 551 339 340
f 551 340 341
f 551 546 549
f 552 445 550
f 552 551 341
f 552 311 445
f 552 341 342
f 552 342 343
f 552 343 311
f 552 550 548
f 552 548 551
f 279 445 311
f 279 413 445
f 556 557 558
f 556 558 377
f 553 554 555
f 376 553 555
f 377 376 555
f 377 555 556
f 570 379 571
f 569 379 570
f 566 568 567
f 566 569 568
f 565 569 566
f 562 564 563
f 562 565 564
f 561 565 562
f 553 560 559
f 376 561 560
f 376 560 553
f 379 561 376
f 379 565 561
f 379 569 565
f 574 576 575
f 574 378 576
f 571 573 572
f 379 573 571
f 378 573 379
f 378 574 573
f 588 576 378
f 587 588 378
f 584 585 586
f 584 586 587
f 583 584 587
f 580 581 582
f 580 582 583
f 579 580 583
f 558 577 578
f 377 578 579
f 377 558 578
f 378 377 579
f 378 579 583
f 378 583 587
f 591 484 479
f 591 590 484
f 477 590 589
f 477 484 590
f 478 589 592
f 478 477 589
f 478 591 479
f 478 592 591
f 482 480 483
f 482 481 480
f 486 487 485
f 486 488 487
f 577 558 594
f 595 577 594
f 557 594 558
f 593 594 557
f 574 575 613
f 610 612 611
f 610 613 612
f 610 574 613
f 609 574 610
f 606 608 607
f 605 609 608
f 605 608 606
f 604 609 605
f 601 603 602
f 600 604 603
f 600 603 601
f 596 598 597
f 599 604 600
f 593 599 598
f 593 598 596
f 556 593 557
f 556 599 593
f 574 599 556
f 574 604 599
f 574 609 604
f 573 574 556
f 573 556 555
f 573 632 572
f 629 630 631
f 629 631 632
f 629 632 573
f 628 629 573
f 625 626 627
f 624 627 628
f 624 625 627
f 623 624 628
f 620 621 622
f 619 622 623
f 619 620 622
f 615 616 617
f 618 619 623
f 614 617 618
f 614 615 617
f 555 554 614
f 555 614 618
f 573 555 618
f 573 618 623
f 573 623 628
f 634 614 554
f 634 554 553
f 559 633 634
f 559 634 553
f 635 572 632
f 635 636 570
f 571 635 570
f 571 572 635
f 636 629 628
f 636 628 569
f 637 629 636
f 570 636 569
f 569 627 568
f 569 628 627
f 641 586 585
f 608 586 641
f 607 641 640
f 607 608 641
f 638 627 626
f 568 627 638
f 567 568 638
f 639 638 626
f 639 607 640
f 639 626 607
f 567 638 642
f 567 642 566
f 642 624 623
f 642 623 565
f 643 624 642
f 566 642 565
f 565 622 564
f 565 623 622
f 647 582 581
f 603 582 647
f 602 647 646
f 602 603 647
f 644 622 621
f 564 622 644
f 563 564 644
f 645 644 621
f 645 602 646
f 645 621 602
f 563 644 648
f 563 648 562
f 648 619 618
f 648 618 561
f 649 619 648
f 562 648 561
f 561 617 560
f 561 618 617
f 595 578 577
f 598 578 595
f 597 595 651
f 597 598 595
f 633 617 616
f 560 617 633
f 559 560 633
f 650 633 616
f 650 597 651
f 650 616 597
f 653 576 588
f 653 588 652
f 575 653 613
f 575 576 653
f 652 588 587
f 609 652 587
f 610 654 652
f 610 652 609
f 609 586 608
f 609 587 586
f 641 585 584
f 641 584 655
f 655 584 583
f 604 655 583
f 605 656 655
f 605 655 604
f 604 582 603
f 604 583 582
f 647 581 580
f 647 580 657
f 657 580 579
f 599 657 579
f 600 658 657
f 600 657 599
f 599 578 598
f 599 579 578
f 596 590 594
f 593 596 594
f 634 615 614
f 634 589 615
f 589 590 596
f 589 596 615
f 639 635 592
f 637 635 639
f 636 635 637
f 645 638 639
f 645 639 592
f 643 638 645
f 642 638 643
f 650 644 645
f 649 644 650
f 648 644 649
f 589 650 645
f 633 650 589
f 634 633 589
f 589 645 592
f 612 653 591
f 613 653 612
f 635 632 631
f 635 631 592
f 592 612 591
f 592 631 612
f 640 591 653
f 654 640 653
f 652 654 653
f 646 640 641
f 646 591 640
f 656 646 641
f 655 656 641
f 651 646 647
f 658 651 647
f 657 658 647
f 590 646 651
f 595 590 651
f 594 590 595
f 590 591 646
f 631 611 612
f 631 630 611
f 611 640 654
f 610 611 654
f 637 630 629
f 637 639 630
f 639 640 611
f 639 611 630
f 626 606 607
f 626 625 606
f 606 646 656
f 605 606 656
f 643 625 624
f 643 645 625
f 645 646 606
f 645 606 625
f 621 601 602
f 621 620 601
f 601 651 658
f 600 601 658
f 649 620 619
f 649 650 620
f 650 651 601
f 650 601 620
f 616 596 597
f 616 615 596
