# SSTK version 0.8.0
# 21
mtllib original_21.mtl
o object_0
v 0.294506 -0.195079 0.581727
v 0.400419 -0.293761 0.581727
v 0.294506 -0.293761 0.581727
v 0.400419 -0.195079 0.581727
v 0.400419 -0.195079 0.581727
v 0.294506 -0.195079 0.581727
v 0.400419 -0.293761 0.581727
v 0.294506 -0.293761 0.581727
v 0.400419 -0.293761 0.581727
v 0.406297 -0.195079 0.596425
v 0.406297 -0.293761 0.596425
v 0.400419 -0.195079 0.581727
v 0.400419 -0.195079 0.581727
v 0.400419 -0.293761 0.581727
v 0.406297 -0.195079 0.596425
v 0.406297 -0.293761 0.596425
v 0.400419 -0.293761 0.581727
v 0.400897 -0.293761 0.661590
v 0.294506 -0.293761 0.581727
v 0.406297 -0.293761 0.596425
v 0.409398 -0.293761 0.665111
v 0.423080 -0.293761 0.596425
v 0.418519 -0.293761 0.666312
v 0.427641 -0.293761 0.665111
v 0.427641 -0.293761 0.597026
v 0.436141 -0.293761 0.600547
v 0.436141 -0.293761 0.661590
v 0.443440 -0.293761 0.606147
v 0.443440 -0.293761 0.655990
v 0.449041 -0.293761 0.613447
v 0.449041 -0.293761 0.648690
v 0.452562 -0.293761 0.621947
v 0.452562 -0.293761 0.640190
v 0.453763 -0.293761 0.631069
v 0.453763 -0.293761 0.631069
v 0.452562 -0.293761 0.621947
v 0.452562 -0.293761 0.640190
v 0.449041 -0.293761 0.648690
v 0.449041 -0.293761 0.613447
v 0.443440 -0.293761 0.655990
v 0.443440 -0.293761 0.606147
v 0.436141 -0.293761 0.661590
v 0.436141 -0.293761 0.600547
v 0.427641 -0.293761 0.665111
v 0.427641 -0.293761 0.597026
v 0.423080 -0.293761 0.596425
v 0.418519 -0.293761 0.666312
v 0.409398 -0.293761 0.665111
v 0.406297 -0.293761 0.596425
v 0.400897 -0.293761 0.661590
v 0.400419 -0.293761 0.581727
v 0.294506 -0.293761 0.581727
v 0.400897 -0.195079 0.661590
v 0.294506 -0.293761 0.581727
v 0.400897 -0.293761 0.661590
v 0.294506 -0.195079 0.581727
v 0.294506 -0.195079 0.581727
v 0.400897 -0.195079 0.661590
v 0.294506 -0.293761 0.581727
v 0.400897 -0.293761 0.661590
v 0.400897 -0.195079 0.661590
v 0.400419 -0.195079 0.581727
v 0.294506 -0.195079 0.581727
v 0.406297 -0.195079 0.596425
v 0.409398 -0.195079 0.665111
v 0.423080 -0.195079 0.596425
v 0.418519 -0.195079 0.666312
v 0.427641 -0.195079 0.665111
v 0.427641 -0.195079 0.597026
v 0.436141 -0.195079 0.661590
v 0.436141 -0.195079 0.600547
v 0.443440 -0.195079 0.655990
v 0.443440 -0.195079 0.606147
v 0.449041 -0.195079 0.648690
v 0.449041 -0.195079 0.613447
v 0.452562 -0.195079 0.640190
v 0.452562 -0.195079 0.621947
v 0.453763 -0.195079 0.631069
v 0.453763 -0.195079 0.631069
v 0.452562 -0.195079 0.640190
v 0.452562 -0.195079 0.621947
v 0.449041 -0.195079 0.613447
v 0.449041 -0.195079 0.648690
v 0.443440 -0.195079 0.606147
v 0.443440 -0.195079 0.655990
v 0.436141 -0.195079 0.600547
v 0.436141 -0.195079 0.661590
v 0.427641 -0.195079 0.597026
v 0.427641 -0.195079 0.665111
v 0.423080 -0.195079 0.596425
v 0.418519 -0.195079 0.666312
v 0.409398 -0.195079 0.665111
v 0.406297 -0.195079 0.596425
v 0.400897 -0.195079 0.661590
v 0.400419 -0.195079 0.581727
v 0.294506 -0.195079 0.581727
v 0.406297 -0.195079 0.596425
v 0.423080 -0.293761 0.596425
v 0.406297 -0.293761 0.596425
v 0.423080 -0.195079 0.596425
v 0.423080 -0.195079 0.596425
v 0.406297 -0.195079 0.596425
v 0.423080 -0.293761 0.596425
v 0.406297 -0.293761 0.596425
v 0.423080 -0.195079 0.596425
v 0.427641 -0.293761 0.597026
v 0.423080 -0.293761 0.596425
v 0.427641 -0.195079 0.597026
v 0.427641 -0.195079 0.597026
v 0.423080 -0.195079 0.596425
v 0.427641 -0.293761 0.597026
v 0.423080 -0.293761 0.596425
v 0.436141 -0.293761 0.600547
v 0.436141 -0.195079 0.600547
v 0.436141 -0.195079 0.600547
v 0.436141 -0.293761 0.600547
v 0.443440 -0.293761 0.606147
v 0.443440 -0.195079 0.606147
v 0.443440 -0.195079 0.606147
v 0.443440 -0.293761 0.606147
v 0.449041 -0.195079 0.613447
v 0.449041 -0.293761 0.613447
v 0.449041 -0.195079 0.613447
v 0.449041 -0.293761 0.613447
v 0.452562 -0.195079 0.621947
v 0.452562 -0.293761 0.621947
v 0.452562 -0.195079 0.621947
v 0.452562 -0.293761 0.621947
v 0.453763 -0.195079 0.631069
v 0.453763 -0.293761 0.631069
v 0.453763 -0.195079 0.631069
v 0.453763 -0.293761 0.631069
v 0.452562 -0.195079 0.640190
v 0.452562 -0.293761 0.640190
v 0.452562 -0.195079 0.640190
v 0.452562 -0.293761 0.640190
v 0.449041 -0.195079 0.648690
v 0.449041 -0.293761 0.648690
v 0.449041 -0.195079 0.648690
v 0.449041 -0.293761 0.648690
v 0.443440 -0.195079 0.655990
v 0.443440 -0.293761 0.655990
v 0.443440 -0.195079 0.655990
v 0.443440 -0.293761 0.655990
v 0.436141 -0.293761 0.661590
v 0.436141 -0.195079 0.661590
v 0.436141 -0.195079 0.661590
v 0.436141 -0.293761 0.661590
v 0.427641 -0.293761 0.665111
v 0.427641 -0.195079 0.665111
v 0.427641 -0.195079 0.665111
v 0.427641 -0.293761 0.665111
v 0.418519 -0.293761 0.666312
v 0.418519 -0.195079 0.666312
v 0.418519 -0.195079 0.666312
v 0.418519 -0.293761 0.666312
v 0.409398 -0.293761 0.665111
v 0.409398 -0.195079 0.665111
v 0.409398 -0.195079 0.665111
v 0.409398 -0.293761 0.665111
v 0.400897 -0.293761 0.661590
v 0.400897 -0.195079 0.661590
v 0.400897 -0.195079 0.661590
v 0.400897 -0.293761 0.661590
vt 1.319427e-17 0.1722441
vt -0.1848643 -7.768885e-48
vt 1.319427e-17 -7.768885e-48
vt -0.1848643 0.1722441
vt 0.06842644 0
vt 0.04079611 0.1722441
vt 0.04079611 0
vt 0.06842644 0.1722441
vt -0.1848643 0.1476378
vt -0.1857 0.008241548
vt 0 0.1476378
vt -0.1951254 0.1219834
vt -0.2005364 0.002096098
vt -0.2244186 0.1219834
vt -0.2164578 -6.761809e-63
vt -0.2323793 0.002096098
vt -0.2323793 0.1209354
vt -0.2472157 0.1147899
vt -0.2472157 0.008241548
vt -0.259956 0.105014
vt -0.259956 0.01801755
vt -0.269732 0.09227362
vt -0.269732 0.03075787
vt -0.2758775 0.0774372
vt -0.2758775 0.0455943
vt -0.2779736 0.06151575
vt 0.1435657 0.1722441
vt -0.08863202 0
vt 0.1435657 0
vt -0.08863202 0.1722441
vt 0.1857 0.008241548
vt 0.1848643 0.1476378
vt -1.47938e-32 0.1476378
vt 0.1951254 0.1219834
vt 0.2005364 0.002096098
vt 0.2244186 0.1219834
vt 0.2164578 -5.079852e-32
vt 0.2323793 0.002096098
vt 0.2323793 0.1209354
vt 0.2472157 0.008241548
vt 0.2472157 0.1147899
vt 0.259956 0.01801755
vt 0.259956 0.105014
vt 0.269732 0.03075787
vt 0.269732 0.09227362
vt 0.2758775 0.0455943
vt 0.2758775 0.0774372
vt 0.2779736 0.06151575
vt -0.1951254 0.1722441
vt -0.2244186 -3.563181e-34
vt -0.1951254 -3.563181e-34
vt -0.2244186 0.1722441
vt -0.2065766 0.1722441
vt -0.214606 0
vt -0.2065766 0
vt -0.214606 0.1722441
vt -0.1684105 0.1722441
vt -0.1844693 0
vt -0.1684105 0
vt -0.1844693 0.1722441
vt -0.1262497 0.1722441
vt -0.1423086 0
vt -0.1262497 0
vt -0.1423086 0.1722441
vt -0.07493804 0
vt -0.09099688 0.1722441
vt -0.09099688 0
vt -0.07493804 0.1722441
vt -0.01797227 0
vt -0.03403111 0.1722441
vt -0.03403111 0
vt -0.01797227 0.1722441
vt 0.04076547 0
vt 0.02470664 0.1722441
vt 0.02470664 0
vt 0.04076547 0.1722441
vt 0.09727231 0
vt 0.08121347 0.1722441
vt 0.08121347 0
vt 0.09727231 0.1722441
vt 0.1476974 0
vt 0.1316386 0.1722441
vt 0.1316386 0
vt 0.1476974 0.1722441
vt 0.1886043 0
vt 0.1725455 0.1722441
vt 0.1725455 0
vt 0.1886043 0.1722441
vt 0.2172054 0.1722441
vt 0.2011465 0
vt 0.2172054 0
vt 0.2011465 0.1722441
vt 0.2315514 0.1722441
vt 0.2154926 0
vt 0.2315514 0
vt 0.2154926 0.1722441
vt 0.2306648 0.1722441
vt 0.214606 0
vt 0.2306648 0
vt 0.214606 0.1722441
vt 0.1985472 0
vt 0.1985472 0.1722441
vt 0.1844693 0.1722441
vt 0.1684105 0
vt 0.1844693 0
vt 0.1684105 0.1722441
vn 0 0 -1
vn 0 0 1
vn 0.9284850009976525 0 -0.3713699003990351
vn -0.9284850009976525 0 0.3713699003990351
vn 0 -1 0
vn 0 1 0
vn -0.6003342196338469 0 0.7997492261556869
vn 0.6003342196338469 0 -0.7997492261556869
vn 0.13052619486885547 0 -0.9914448610250887
vn 0.2588190095935616 0 -0.9659258358036644
vn -0.2588190095935616 0 0.9659258358036644
vn -0.13052619486885547 0 0.9914448610250887
vn 0.5000000016387101 0 -0.8660254028383291
vn -0.5000000016387101 0 0.8660254028383291
vn 0.7071067811865476 0 -0.7071067811865476
vn -0.7071067811865476 0 0.7071067811865476
vn 0.8660254028383291 0 -0.5000000016387101
vn -0.8660254028383291 0 0.5000000016387101
vn 0.9659258358036644 0 -0.2588190095935616
vn -0.9659258358036644 0 0.2588190095935616
vn 1 0 0
vn -1 0 0
vn 0.9659258358036644 0 0.2588190095935616
vn -0.9659258358036644 0 -0.2588190095935616
vn 0.8660254028383291 0 0.5000000016387101
vn -0.8660254028383291 0 -0.5000000016387101
vn 0.7071067811865476 0 0.7071067811865476
vn -0.7071067811865476 0 -0.7071067811865476
vn 0.5000000016387101 0 0.8660254028383291
vn -0.5000000016387101 0 -0.8660254028383291
vn 0.2588190095935616 0 0.9659258358036644
vn -0.2588190095935616 0 -0.9659258358036644
vn -0.3826834162342326 0 0.9238795391929063
vn 0.3826834162342326 0 -0.9238795391929063
usemtl material_0_0
f 1/1/1 2/2/1 3/3/1
f 2/2/1 1/1/1 4/4/1
f 5/4/2 6/1/2 7/2/2
f 8/3/2 7/2/2 6/1/2
f 9/5/3 10/6/3 11/7/3
f 10/6/3 9/5/3 12/8/3
f 13/8/4 14/5/4 15/6/4
f 16/7/4 15/6/4 14/5/4
f 17/9/5 18/10/5 19/11/5
f 18/10/5 17/9/5 20/12/5
f 18/10/5 20/12/5 21/13/5
f 21/13/5 20/12/5 22/14/5
f 21/13/5 22/14/5 23/15/5
f 23/15/5 22/14/5 24/16/5
f 24/16/5 22/14/5 25/17/5
f 24/16/5 25/17/5 26/18/5
f 24/16/5 26/18/5 27/19/5
f 27/19/5 26/18/5 28/20/5
f 27/19/5 28/20/5 29/21/5
f 29/21/5 28/20/5 30/22/5
f 29/21/5 30/22/5 31/23/5
f 31/23/5 30/22/5 32/24/5
f 31/23/5 32/24/5 33/25/5
f 33/25/5 32/24/5 34/26/5
f 35/26/6 36/24/6 37/25/6
f 37/25/6 36/24/6 38/23/6
f 36/24/6 39/22/6 38/23/6
f 38/23/6 39/22/6 40/21/6
f 39/22/6 41/20/6 40/21/6
f 40/21/6 41/20/6 42/19/6
f 41/20/6 43/18/6 42/19/6
f 42/19/6 43/18/6 44/16/6
f 43/18/6 45/17/6 44/16/6
f 45/17/6 46/14/6 44/16/6
f 44/16/6 46/14/6 47/15/6
f 47/15/6 46/14/6 48/13/6
f 46/14/6 49/12/6 48/13/6
f 48/13/6 49/12/6 50/10/6
f 49/12/6 51/9/6 50/10/6
f 52/11/6 50/10/6 51/9/6
f 53/27/7 54/28/7 55/29/7
f 54/28/7 53/27/7 56/30/7
f 57/30/8 58/27/8 59/28/8
f 60/29/8 59/28/8 58/27/8
f 61/31/6 62/32/6 63/33/6
f 62/32/6 61/31/6 64/34/6
f 64/34/6 61/31/6 65/35/6
f 64/34/6 65/35/6 66/36/6
f 66/36/6 65/35/6 67/37/6
f 66/36/6 67/37/6 68/38/6
f 66/36/6 68/38/6 69/39/6
f 69/39/6 68/38/6 70/40/6
f 69/39/6 70/40/6 71/41/6
f 71/41/6 70/40/6 72/42/6
f 71/41/6 72/42/6 73/43/6
f 73/43/6 72/42/6 74/44/6
f 73/43/6 74/44/6 75/45/6
f 75/45/6 74/44/6 76/46/6
f 75/45/6 76/46/6 77/47/6
f 77/47/6 76/46/6 78/48/6
f 79/48/5 80/46/5 81/47/5
f 81/47/5 80/46/5 82/45/5
f 80/46/5 83/44/5 82/45/5
f 82/45/5 83/44/5 84/43/5
f 83/44/5 85/42/5 84/43/5
f 84/43/5 85/42/5 86/41/5
f 85/42/5 87/40/5 86/41/5
f 86/41/5 87/40/5 88/39/5
f 87/40/5 89/38/5 88/39/5
f 88/39/5 89/38/5 90/36/5
f 89/38/5 91/37/5 90/36/5
f 91/37/5 92/35/5 90/36/5
f 90/36/5 92/35/5 93/34/5
f 92/35/5 94/31/5 93/34/5
f 93/34/5 94/31/5 95/32/5
f 96/33/5 95/32/5 94/31/5
f 97/49/1 98/50/1 99/51/1
f 98/50/1 97/49/1 100/52/1
f 101/52/2 102/49/2 103/50/2
f 104/51/2 103/50/2 102/49/2
f 105/53/9 106/54/10 107/55/9
f 106/54/10 105/53/9 108/56/10
f 109/56/11 110/53/12 111/54/11
f 112/55/12 111/54/11 110/53/12
f 108/57/10 113/58/13 106/59/10
f 113/58/13 108/57/10 114/60/13
f 115/60/14 109/57/11 116/58/14
f 111/59/11 116/58/14 109/57/11
f 114/61/13 117/62/15 113/63/13
f 117/62/15 114/61/13 118/64/15
f 119/64/16 115/61/14 120/62/16
f 116/63/14 120/62/16 115/61/14
f 117/65/15 121/66/17 122/67/17
f 121/66/17 117/65/15 118/68/15
f 119/68/16 120/65/16 123/66/18
f 124/67/18 123/66/18 120/65/16
f 122/69/17 125/70/19 126/71/19
f 125/70/19 122/69/17 121/72/17
f 123/72/18 124/69/18 127/70/20
f 128/71/20 127/70/20 124/69/18
f 126/73/19 129/74/21 130/75/21
f 129/74/21 126/73/19 125/76/19
f 127/76/20 128/73/20 131/74/22
f 132/75/22 131/74/22 128/73/20
f 130/77/21 133/78/23 134/79/23
f 133/78/23 130/77/21 129/80/21
f 131/80/22 132/77/22 135/78/24
f 136/79/24 135/78/24 132/77/22
f 134/81/23 137/82/25 138/83/25
f 137/82/25 134/81/23 133/84/23
f 135/84/24 136/81/24 139/82/26
f 140/83/26 139/82/26 136/81/24
f 138/85/25 141/86/27 142/87/27
f 141/86/27 138/85/25 137/88/25
f 139/88/26 140/85/26 143/86/28
f 144/87/28 143/86/28 140/85/26
f 141/89/27 145/90/29 142/91/27
f 145/90/29 141/89/27 146/92/29
f 147/92/30 143/89/28 148/90/30
f 144/91/28 148/90/30 143/89/28
f 146/93/29 149/94/31 145/95/29
f 149/94/31 146/93/29 150/96/31
f 151/96/32 147/93/30 152/94/32
f 148/95/30 152/94/32 147/93/30
f 150/97/31 153/98/2 149/99/31
f 153/98/2 150/97/31 154/100/2
f 155/100/1 151/97/32 156/98/1
f 152/99/32 156/98/1 151/97/32
f 154/100/2 157/101/11 153/98/2
f 157/101/11 154/100/2 158/102/11
f 159/102/10 155/100/1 160/101/10
f 156/98/1 160/101/10 155/100/1
f 158/103/11 161/104/33 157/105/11
f 161/104/33 158/103/11 162/106/33
f 163/106/34 159/103/10 164/104/34
f 160/105/10 164/104/34 159/103/10
