# SSTK version 0.8.0
# 20
mtllib original_20.mtl
o object_0
v 0.410029 0.497040 -0.531436
v -0.462671 -0.459574 -0.531436
v 0.410029 -0.459574 -0.531436
v -0.462671 0.497040 -0.531436
v -0.462671 0.497040 -0.531436
v 0.410029 0.497040 -0.531436
v -0.462671 -0.459574 -0.531436
v 0.410029 -0.459574 -0.531436
v 0.410029 0.497040 -0.531436
v 0.410029 -0.459574 0.593005
v 0.410029 0.497040 0.593005
v 0.410029 -0.459574 -0.531436
v 0.410029 -0.459574 -0.531436
v 0.410029 0.497040 -0.531436
v 0.410029 -0.459574 0.593005
v 0.410029 0.497040 0.593005
v 0.410029 0.497040 -0.531436
v -0.462671 0.497040 0.593005
v -0.462671 0.497040 -0.531436
v 0.410029 0.497040 0.593005
v 0.410029 0.497040 0.593005
v 0.410029 0.497040 -0.531436
v -0.462671 0.497040 0.593005
v -0.462671 0.497040 -0.531436
v -0.462671 -0.459574 0.593005
v -0.462671 0.497040 -0.531436
v -0.462671 0.497040 0.593005
v -0.462671 -0.459574 -0.531436
v -0.462671 -0.459574 -0.531436
v -0.462671 -0.459574 0.593005
v -0.462671 0.497040 -0.531436
v -0.462671 0.497040 0.593005
v -0.462671 -0.459574 0.593005
v 0.410029 -0.459574 -0.531436
v -0.462671 -0.459574 -0.531436
v 0.410029 -0.459574 0.593005
v 0.410029 -0.459574 0.593005
v -0.462671 -0.459574 0.593005
v 0.410029 -0.459574 -0.531436
v -0.462671 -0.459574 -0.531436
vt 1.500984 1.747047
vt 0.2214567 0.3444882
vt 1.500984 0.3444882
vt 0.2214567 1.747047
vt -1.648622 1.747047
vt -1.776357e-15 0.3444882
vt -8.881784e-16 1.747047
vt -1.648622 0.3444882
vt -1.500984 1.648622
vt -0.2214567 1.829382e-15
vt -0.2214567 1.648622
vt -1.500984 1.829382e-15
vt 1.772628e-15 0.3444882
vt 1.648622 1.747047
vt 8.844501e-16 1.747047
vt 1.648622 0.3444882
vt 0.2214567 1.776357e-15
vt 1.500984 1.648622
vt 0.2214567 1.648622
vt 1.500984 1.776357e-15
vn 0 0 1
vn 0 0 -1
vn -1 0 0
vn 1 0 0
vn 0 -1 0
vn 0 1 0
usemtl material_0_0
f 1/1/1 2/2/1 3/3/1
f 2/2/1 1/1/1 4/4/1
f 5/4/2 6/1/2 7/2/2
f 8/3/2 7/2/2 6/1/2
f 9/5/3 10/6/3 11/7/3
f 10/6/3 9/5/3 12/8/3
f 13/8/4 14/5/4 15/6/4
f 16/7/4 15/6/4 14/5/4
f 17/9/5 18/10/5 19/11/5
f 18/10/5 17/9/5 20/12/5
f 21/12/6 22/9/6 23/10/6
f 24/11/6 23/10/6 22/9/6
f 25/13/4 26/14/4 27/15/4
f 26/14/4 25/13/4 28/16/4
f 29/16/3 30/13/3 31/14/3
f 32/15/3 31/14/3 30/13/3
f 33/17/6 34/18/6 35/19/6
f 34/18/6 33/17/6 36/20/6
f 37/20/5 38/17/5 39/18/5
f 40/19/5 39/18/5 38/17/5
