# SSTK version 0.8.0
# 19
mtllib original_19.mtl
o object_0
v -0.580150 0.614519 -0.581784
v 0.527508 -0.593836 -0.581784
v -0.580150 -0.593836 -0.581784
v 0.527508 0.614519 -0.581784
v 0.527508 0.614519 -0.581784
v -0.580150 0.614519 -0.581784
v 0.527508 -0.593836 -0.581784
v -0.580150 -0.593836 -0.581784
v -0.580150 0.614519 -0.581784
v -0.580150 -0.593836 0.593005
v -0.580150 0.614519 0.593005
v -0.580150 -0.593836 -0.581784
v -0.580150 -0.593836 -0.581784
v -0.580150 0.614519 -0.581784
v -0.580150 -0.593836 0.593005
v -0.580150 0.614519 0.593005
v -0.580150 0.614519 0.593005
v 0.527508 0.614519 -0.581784
v -0.580150 0.614519 -0.581784
v 0.527508 0.614519 0.593005
v 0.527508 0.614519 0.593005
v -0.580150 0.614519 0.593005
v 0.527508 0.614519 -0.581784
v -0.580150 0.614519 -0.581784
v 0.527508 -0.593836 0.593005
v 0.527508 0.614519 -0.581784
v 0.527508 0.614519 0.593005
v 0.527508 -0.593836 -0.581784
v 0.527508 -0.593836 -0.581784
v 0.527508 -0.593836 0.593005
v 0.527508 0.614519 -0.581784
v 0.527508 0.614519 0.593005
v 0.527508 -0.593836 -0.581784
v -0.580150 -0.593836 0.593005
v -0.580150 -0.593836 -0.581784
v 0.527508 -0.593836 0.593005
v 0.527508 -0.593836 0.593005
v 0.527508 -0.593836 -0.581784
v -0.580150 -0.593836 0.593005
v -0.580150 -0.593836 -0.581784
v 0.527508 -0.593836 0.593005
v 0.410029 -0.459574 0.593005
v -0.580150 -0.593836 0.593005
v 0.527508 0.614519 0.593005
v 0.410029 0.497040 0.593005
v -0.462671 0.497040 0.593005
v -0.462671 -0.459574 0.593005
v -0.580150 0.614519 0.593005
v 0.527508 0.614519 0.593005
v -0.462671 0.497040 0.593005
v -0.580150 0.614519 0.593005
v -0.462671 -0.459574 0.593005
v 0.410029 -0.459574 0.593005
v -0.580150 -0.593836 0.593005
v 0.410029 0.497040 0.593005
v 0.527508 -0.593836 0.593005
vt -0.0492126 1.919291
vt -1.673228 0.1476378
vt -0.0492126 0.1476378
vt -1.673228 1.919291
vt -1.722441 1.919291
vt -1.842772e-15 0.1476378
vt -4.421067e-17 1.919291
vt -1.722441 0.1476378
vt 0.0492126 2.023778e-15
vt 1.673228 1.722441
vt 0.0492126 1.722441
vt 1.673228 2.023778e-15
vt 1.84297e-15 0.1476378
vt 1.722441 1.919291
vt 4.440892e-17 1.919291
vt 1.722441 0.1476378
vt -1.673228 1.722441
vt -0.0492126 1.766841e-15
vt -0.0492126 1.722441
vt -1.673228 1.766841e-15
vt 1.673228 0.1476378
vt 1.500984 0.3444882
vt 0.0492126 0.1476378
vt 1.673228 1.919291
vt 1.500984 1.747047
vt 0.2214567 1.747047
vt 0.2214567 0.3444882
vt 0.0492126 1.919291
vn 0 0 -1
vn 0 0 1
vn -1 0 0
vn 1 0 0
vn 0 1 0
vn 0 -1 0
usemtl material_0_0
f 1/1/1 2/2/1 3/3/1
f 2/2/1 1/1/1 4/4/1
f 5/4/2 6/1/2 7/2/2
f 8/3/2 7/2/2 6/1/2
f 9/5/3 10/6/3 11/7/3
f 10/6/3 9/5/3 12/8/3
f 13/8/4 14/5/4 15/6/4
f 16/7/4 15/6/4 14/5/4
f 17/9/5 18/10/5 19/11/5
f 18/10/5 17/9/5 20/12/5
f 21/12/6 22/9/6 23/10/6
f 24/11/6 23/10/6 22/9/6
f 25/13/4 26/14/4 27/15/4
f 26/14/4 25/13/4 28/16/4
f 29/16/3 30/13/3 31/14/3
f 32/15/3 31/14/3 30/13/3
f 33/17/6 34/18/6 35/19/6
f 34/18/6 33/17/6 36/20/6
f 37/20/5 38/17/5 39/18/5
f 40/19/5 39/18/5 38/17/5
f 41/21/2 42/22/2 43/23/2
f 42/22/2 41/21/2 44/24/2
f 42/22/2 44/24/2 45/25/2
f 45/25/2 44/24/2 46/26/2
f 43/23/2 47/27/2 48/28/2
f 47/27/2 43/23/2 42/22/2
f 48/28/2 47/27/2 46/26/2
f 48/28/2 46/26/2 44/24/2
f 49/24/1 50/26/1 51/28/1
f 50/26/1 52/27/1 51/28/1
f 53/22/1 54/23/1 52/27/1
f 51/28/1 52/27/1 54/23/1
f 50/26/1 49/24/1 55/25/1
f 55/25/1 49/24/1 53/22/1
f 49/24/1 56/21/1 53/22/1
f 54/23/1 53/22/1 56/21/1
