# SSTK version 0.8.0
# 8
mtllib original_8.mtl
o object_0
v 0.167932 -0.200321 0.445318
v 0.148646 -0.200321 0.445318
v 0.158289 -0.201590 0.445318
v 0.176917 -0.196598 0.445318
v 0.139660 -0.196598 0.445318
v 0.131944 -0.190678 0.445318
v 0.184634 -0.190678 0.445318
v 0.126023 -0.182961 0.445318
v 0.190555 -0.182961 0.445318
v 0.122301 -0.173975 0.445318
v 0.194277 -0.173975 0.445318
v 0.121031 -0.164332 0.445318
v 0.195546 -0.164332 0.445318
v 0.122301 -0.154689 0.445318
v 0.194277 -0.154689 0.445318
v 0.126023 -0.145704 0.445318
v 0.190555 -0.145704 0.445318
v 0.131944 -0.137987 0.445318
v 0.184634 -0.137987 0.445318
v 0.139660 -0.132066 0.445318
v 0.176917 -0.132066 0.445318
v 0.148646 -0.128344 0.445318
v 0.167932 -0.128344 0.445318
v 0.158289 -0.127075 0.445318
v 0.158289 -0.127075 0.445318
v 0.167932 -0.128344 0.445318
v 0.148646 -0.128344 0.445318
v 0.176917 -0.132066 0.445318
v 0.139660 -0.132066 0.445318
v 0.184634 -0.137987 0.445318
v 0.131944 -0.137987 0.445318
v 0.190555 -0.145704 0.445318
v 0.126023 -0.145704 0.445318
v 0.194277 -0.154689 0.445318
v 0.122301 -0.154689 0.445318
v 0.195546 -0.164332 0.445318
v 0.121031 -0.164332 0.445318
v 0.194277 -0.173975 0.445318
v 0.122301 -0.173975 0.445318
v 0.190555 -0.182961 0.445318
v 0.126023 -0.182961 0.445318
v 0.184634 -0.190678 0.445318
v 0.131944 -0.190678 0.445318
v 0.176917 -0.196598 0.445318
v 0.139660 -0.196598 0.445318
v 0.148646 -0.200321 0.445318
v 0.167932 -0.200321 0.445318
v 0.158289 -0.201590 0.445318
v 0.194277 -0.173975 0.445318
v 0.190555 -0.182961 0.579579
v 0.194277 -0.173975 0.579579
v 0.190555 -0.182961 0.445318
v 0.190555 -0.182961 0.445318
v 0.194277 -0.173975 0.445318
v 0.190555 -0.182961 0.579579
v 0.194277 -0.173975 0.579579
v 0.195546 -0.164332 0.445318
v 0.195546 -0.164332 0.579579
v 0.195546 -0.164332 0.445318
v 0.195546 -0.164332 0.579579
v 0.194277 -0.154689 0.445318
v 0.194277 -0.154689 0.579579
v 0.194277 -0.154689 0.445318
v 0.194277 -0.154689 0.579579
v 0.190555 -0.145704 0.445318
v 0.190555 -0.145704 0.579579
v 0.190555 -0.145704 0.445318
v 0.190555 -0.145704 0.579579
v 0.184634 -0.137987 0.445318
v 0.184634 -0.137987 0.579579
v 0.184634 -0.137987 0.445318
v 0.184634 -0.137987 0.579579
v 0.176917 -0.132066 0.579579
v 0.176917 -0.132066 0.445318
v 0.176917 -0.132066 0.579579
v 0.176917 -0.132066 0.445318
v 0.167932 -0.128344 0.579579
v 0.167932 -0.128344 0.445318
v 0.167932 -0.128344 0.579579
v 0.167932 -0.128344 0.445318
v 0.158289 -0.127075 0.579579
v 0.158289 -0.127075 0.445318
v 0.158289 -0.127075 0.579579
v 0.158289 -0.127075 0.445318
v 0.148646 -0.128344 0.579579
v 0.148646 -0.128344 0.445318
v 0.148646 -0.128344 0.579579
v 0.148646 -0.128344 0.445318
v 0.139660 -0.132066 0.579579
v 0.139660 -0.132066 0.445318
v 0.139660 -0.132066 0.579579
v 0.139660 -0.132066 0.445318
v 0.131944 -0.137987 0.579579
v 0.131944 -0.137987 0.445318
v 0.131944 -0.137987 0.579579
v 0.131944 -0.137987 0.445318
v 0.126023 -0.145704 0.445318
v 0.126023 -0.145704 0.579579
v 0.126023 -0.145704 0.445318
v 0.126023 -0.145704 0.579579
v 0.122301 -0.154689 0.445318
v 0.122301 -0.154689 0.579579
v 0.122301 -0.154689 0.445318
v 0.122301 -0.154689 0.579579
v 0.121031 -0.164332 0.445318
v 0.121031 -0.164332 0.579579
v 0.121031 -0.164332 0.445318
v 0.121031 -0.164332 0.579579
v 0.122301 -0.173975 0.445318
v 0.122301 -0.173975 0.579579
v 0.122301 -0.173975 0.445318
v 0.122301 -0.173975 0.579579
v 0.126023 -0.182961 0.445318
v 0.126023 -0.182961 0.579579
v 0.126023 -0.182961 0.445318
v 0.126023 -0.182961 0.579579
v 0.131944 -0.190678 0.445318
v 0.131944 -0.190678 0.579579
v 0.131944 -0.190678 0.445318
v 0.131944 -0.190678 0.579579
v 0.139660 -0.196598 0.579579
v 0.139660 -0.196598 0.445318
v 0.139660 -0.196598 0.445318
v 0.139660 -0.196598 0.579579
v 0.148646 -0.200321 0.579579
v 0.148646 -0.200321 0.445318
v 0.148646 -0.200321 0.445318
v 0.148646 -0.200321 0.579579
v 0.158289 -0.201590 0.579579
v 0.158289 -0.201590 0.445318
v 0.158289 -0.201590 0.445318
v 0.158289 -0.201590 0.579579
v 0.167932 -0.200321 0.579579
v 0.167932 -0.200321 0.445318
v 0.167932 -0.200321 0.445318
v 0.167932 -0.200321 0.579579
v 0.176917 -0.196598 0.579579
v 0.176917 -0.196598 0.445318
v 0.176917 -0.196598 0.445318
v 0.176917 -0.196598 0.579579
v 0.184634 -0.190678 0.579579
v 0.184634 -0.190678 0.445318
v 0.184634 -0.190678 0.445318
v 0.184634 -0.190678 0.579579
vt 0.9196501 0.3751883
vt 0.8913736 0.3751883
vt 0.9055118 0.373327
vt 0.9328248 0.3806455
vt 0.8781988 0.3806455
vt 0.8668854 0.3893266
vt 0.9441382 0.3893266
vt 0.8582043 0.40064
vt 0.9528193 0.40064
vt 0.8527472 0.4138147
vt 0.9582765 0.4138147
vt 0.8508858 0.427953
vt 0.9601378 0.427953
vt 0.8527472 0.4420912
vt 0.9582765 0.4420912
vt 0.8582043 0.455266
vt 0.9528193 0.455266
vt 0.8668854 0.4665794
vt 0.9441382 0.4665794
vt 0.8781988 0.4752604
vt 0.9328248 0.4752604
vt 0.8913736 0.4807176
vt 0.9196501 0.4807176
vt 0.9055118 0.4825789
vt -0.1968504 0.7490315
vt -3.330669e-16 0.7347712
vt -3.330669e-16 0.7490315
vt -0.1968504 0.7347712
vt -0.1968504 0.5496149
vt -3.330669e-16 0.5353546
vt -3.330669e-16 0.5496149
vt -0.1968504 0.5353546
vt -0.1968504 0.3132289
vt -3.330669e-16 0.2989686
vt -3.330669e-16 0.3132289
vt -0.1968504 0.2989686
vt -0.1968504 0.05598273
vt -3.330669e-16 0.04172249
vt -3.330669e-16 0.05598273
vt -0.1968504 0.04172249
vt -0.1968504 -0.2045926
vt -3.330669e-16 -0.2188529
vt -3.330669e-16 -0.2045926
vt -0.1968504 -0.2188529
vt -0.1968504 -0.4649997
vt -3.330669e-16 -0.4507394
vt -0.1968504 -0.4507394
vt -3.330669e-16 -0.4649997
vt -0.1968504 -0.6799434
vt -3.330669e-16 -0.6656832
vt -0.1968504 -0.6656832
vt -3.330669e-16 -0.6799434
vt -0.1968504 -0.8490361
vt -3.330669e-16 -0.8347758
vt -0.1968504 -0.8347758
vt -3.330669e-16 -0.8490361
vt 0.1968504 0.9607542
vt 3.330669e-16 0.946494
vt 0.1968504 0.946494
vt 3.330669e-16 0.9607542
vt 0.1968504 1.007484
vt 3.330669e-16 0.9932242
vt 0.1968504 0.9932242
vt 3.330669e-16 1.007484
vt 0.1968504 0.9860422
vt 3.330669e-16 0.971782
vt 0.1968504 0.971782
vt 3.330669e-16 0.9860422
vt 0.1968504 0.8836285
vt 3.330669e-16 0.8978887
vt 3.330669e-16 0.8836285
vt 0.1968504 0.8978887
vt 0.1968504 0.7347712
vt 3.330669e-16 0.7490315
vt 3.330669e-16 0.7347712
vt 0.1968504 0.7490315
vt 0.1968504 0.5353546
vt 3.330669e-16 0.5496149
vt 3.330669e-16 0.5353546
vt 0.1968504 0.5496149
vt 0.1968504 0.2989686
vt 3.330669e-16 0.3132289
vt 3.330669e-16 0.2989686
vt 0.1968504 0.3132289
vt 0.1968504 0.04172249
vt 3.330669e-16 0.05598273
vt 3.330669e-16 0.04172249
vt 0.1968504 0.05598273
vt 0.1968504 -0.2188529
vt 3.330669e-16 -0.2045926
vt 3.330669e-16 -0.2188529
vt 0.1968504 -0.2045926
vt 3.330669e-16 -0.4649997
vt 0.1968504 -0.4507394
vt 3.330669e-16 -0.4507394
vt 0.1968504 -0.4649997
vt 3.330669e-16 -0.6799434
vt 0.1968504 -0.6656832
vt 3.330669e-16 -0.6656832
vt 0.1968504 -0.6799434
vt 3.330669e-16 -0.8490361
vt 0.1968504 -0.8347758
vt 3.330669e-16 -0.8347758
vt 0.1968504 -0.8490361
vt -3.330669e-16 0.9607542
vt -0.1968504 0.946494
vt -3.330669e-16 0.946494
vt -0.1968504 0.9607542
vt -3.330669e-16 1.007484
vt -0.1968504 0.9932242
vt -3.330669e-16 0.9932242
vt -0.1968504 1.007484
vt -3.330669e-16 0.9860422
vt -0.1968504 0.971782
vt -3.330669e-16 0.971782
vt -0.1968504 0.9860422
vt -0.1968504 0.8978887
vt -3.330669e-16 0.8836285
vt -3.330669e-16 0.8978887
vt -0.1968504 0.8836285
vn 0 0 1
vn 0 0 -1
vn -0.9659258358036645 0.25881900959356163 0
vn -0.866025402838329 0.5000000016387101 0
vn 0.866025402838329 -0.5000000016387101 0
vn 0.9659258358036645 -0.25881900959356163 0
vn -1 0 0
vn 1 0 0
vn -0.9659258358036645 -0.25881900959356163 0
vn 0.9659258358036645 0.25881900959356163 0
vn -0.866025402838329 -0.5000000016387101 0
vn 0.866025402838329 0.5000000016387101 0
vn -0.7071067811865476 -0.7071067811865476 0
vn 0.7071067811865476 0.7071067811865476 0
vn -0.5000000016387101 -0.866025402838329 0
vn 0.5000000016387101 0.866025402838329 0
vn -0.25881900959356163 -0.9659258358036645 0
vn 0.25881900959356163 0.9659258358036645 0
vn 0 -1 0
vn 0 1 0
vn 0.25881900959356163 -0.9659258358036645 0
vn -0.25881900959356163 0.9659258358036645 0
vn 0.5000000016387101 -0.866025402838329 0
vn -0.5000000016387101 0.866025402838329 0
vn 0.7071067811865476 -0.7071067811865476 0
vn -0.7071067811865476 0.7071067811865476 0
usemtl material_0_0
f 1/1/1 2/2/1 3/3/1
f 2/2/1 1/1/1 4/4/1
f 2/2/1 4/4/1 5/5/1
f 5/5/1 4/4/1 6/6/1
f 6/6/1 4/4/1 7/7/1
f 6/6/1 7/7/1 8/8/1
f 8/8/1 7/7/1 9/9/1
f 8/8/1 9/9/1 10/10/1
f 10/10/1 9/9/1 11/11/1
f 10/10/1 11/11/1 12/12/1
f 12/12/1 11/11/1 13/13/1
f 12/12/1 13/13/1 14/14/1
f 14/14/1 13/13/1 15/15/1
f 14/14/1 15/15/1 16/16/1
f 16/16/1 15/15/1 17/17/1
f 16/16/1 17/17/1 18/18/1
f 18/18/1 17/17/1 19/19/1
f 18/18/1 19/19/1 20/20/1
f 20/20/1 19/19/1 21/21/1
f 20/20/1 21/21/1 22/22/1
f 22/22/1 21/21/1 23/23/1
f 22/22/1 23/23/1 24/24/1
f 25/24/2 26/23/2 27/22/2
f 26/23/2 28/21/2 27/22/2
f 27/22/2 28/21/2 29/20/2
f 28/21/2 30/19/2 29/20/2
f 29/20/2 30/19/2 31/18/2
f 30/19/2 32/17/2 31/18/2
f 31/18/2 32/17/2 33/16/2
f 32/17/2 34/15/2 33/16/2
f 33/16/2 34/15/2 35/14/2
f 34/15/2 36/13/2 35/14/2
f 35/14/2 36/13/2 37/12/2
f 36/13/2 38/11/2 37/12/2
f 37/12/2 38/11/2 39/10/2
f 38/11/2 40/9/2 39/10/2
f 39/10/2 40/9/2 41/8/2
f 40/9/2 42/7/2 41/8/2
f 41/8/2 42/7/2 43/6/2
f 42/7/2 44/4/2 43/6/2
f 43/6/2 44/4/2 45/5/2
f 45/5/2 44/4/2 46/2/2
f 44/4/2 47/1/2 46/2/2
f 48/3/2 46/2/2 47/1/2
f 49/25/3 50/26/4 51/27/3
f 50/26/4 49/25/3 52/28/4
f 53/28/5 54/25/6 55/26/5
f 56/27/6 55/26/5 54/25/6
f 57/29/7 51/30/3 58/31/7
f 51/30/3 57/29/7 49/32/3
f 54/32/6 59/29/8 56/30/6
f 60/31/8 56/30/6 59/29/8
f 61/33/9 58/34/7 62/35/9
f 58/34/7 61/33/9 57/36/7
f 59/36/8 63/33/10 60/34/8
f 64/35/10 60/34/8 63/33/10
f 65/37/11 62/38/9 66/39/11
f 62/38/9 65/37/11 61/40/9
f 63/40/10 67/37/12 64/38/10
f 68/39/12 64/38/10 67/37/12
f 69/41/13 66/42/11 70/43/13
f 66/42/11 69/41/13 65/44/11
f 67/44/12 71/41/14 68/42/12
f 72/43/14 68/42/12 71/41/14
f 69/45/13 73/46/15 74/47/15
f 73/46/15 69/45/13 70/48/13
f 72/48/14 71/45/14 75/46/16
f 76/47/16 75/46/16 71/45/14
f 74/49/15 77/50/17 78/51/17
f 77/50/17 74/49/15 73/52/15
f 75/52/16 76/49/16 79/50/18
f 80/51/18 79/50/18 76/49/16
f 78/53/17 81/54/19 82/55/19
f 81/54/19 78/53/17 77/56/17
f 79/56/18 80/53/18 83/54/20
f 84/55/20 83/54/20 80/53/18
f 82/57/19 85/58/21 86/59/21
f 85/58/21 82/57/19 81/60/19
f 83/60/20 84/57/20 87/58/22
f 88/59/22 87/58/22 84/57/20
f 86/61/21 89/62/23 90/63/23
f 89/62/23 86/61/21 85/64/21
f 87/64/22 88/61/22 91/62/24
f 92/63/24 91/62/24 88/61/22
f 90/65/23 93/66/25 94/67/25
f 93/66/25 90/65/23 89/68/23
f 91/68/24 92/65/24 95/66/26
f 96/67/26 95/66/26 92/65/24
f 97/69/5 93/70/25 98/71/5
f 93/70/25 97/69/5 94/72/25
f 96/72/26 99/69/4 95/70/26
f 100/71/4 95/70/26 99/69/4
f 101/73/6 98/74/5 102/75/6
f 98/74/5 101/73/6 97/76/5
f 99/76/4 103/73/3 100/74/4
f 104/75/3 100/74/4 103/73/3
f 105/77/8 102/78/6 106/79/8
f 102/78/6 105/77/8 101/80/6
f 103/80/3 107/77/7 104/78/3
f 108/79/7 104/78/3 107/77/7
f 109/81/10 106/82/8 110/83/10
f 106/82/8 109/81/10 105/84/8
f 107/84/7 111/81/9 108/82/7
f 112/83/9 108/82/7 111/81/9
f 113/85/12 110/86/10 114/87/12
f 110/86/10 113/85/12 109/88/10
f 111/88/9 115/85/11 112/86/9
f 116/87/11 112/86/9 115/85/11
f 117/89/14 114/90/12 118/91/14
f 114/90/12 117/89/14 113/92/12
f 115/92/11 119/89/13 116/90/11
f 120/91/13 116/90/11 119/89/13
f 121/93/16 117/94/14 118/95/14
f 117/94/14 121/93/16 122/96/16
f 123/96/15 124/93/15 119/94/13
f 120/95/13 119/94/13 124/93/15
f 125/97/18 122/98/16 121/99/16
f 122/98/16 125/97/18 126/100/18
f 127/100/17 128/97/17 123/98/15
f 124/99/15 123/98/15 128/97/17
f 129/101/20 126/102/18 125/103/18
f 126/102/18 129/101/20 130/104/20
f 131/104/19 132/101/19 127/102/17
f 128/103/17 127/102/17 132/101/19
f 133/105/22 130/106/20 129/107/20
f 130/106/20 133/105/22 134/108/22
f 135/108/21 136/105/21 131/106/19
f 132/107/19 131/106/19 136/105/21
f 137/109/24 134/110/22 133/111/22
f 134/110/22 137/109/24 138/112/24
f 139/112/23 140/109/23 135/110/21
f 136/111/21 135/110/21 140/109/23
f 141/113/26 138/114/24 137/115/24
f 138/114/24 141/113/26 142/116/26
f 143/116/25 144/113/25 139/114/23
f 140/115/23 139/114/23 144/113/25
f 52/117/4 141/118/26 50/119/4
f 141/118/26 52/117/4 142/120/26
f 143/120/25 53/117/5 144/118/25
f 55/119/5 144/118/25 53/117/5
