# SSTK version 0.8.0
# 6
mtllib original_6.mtl
o object_0
v 0.153043 -0.194082 0.587597
v 0.163534 -0.194082 0.587597
v 0.158289 -0.194541 0.587597
v 0.168621 -0.192720 0.587597
v 0.147957 -0.192720 0.587597
v 0.158289 -0.191856 0.587597
v 0.153509 -0.191438 0.587597
v 0.143184 -0.190494 0.587597
v 0.148875 -0.190196 0.587597
v 0.138871 -0.187474 0.587597
v 0.144527 -0.188169 0.587597
v 0.140597 -0.185417 0.587597
v 0.135147 -0.183750 0.587597
v 0.137204 -0.182024 0.587597
v 0.132127 -0.179437 0.587597
v 0.134453 -0.178094 0.587597
v 0.129902 -0.174665 0.587597
v 0.132425 -0.173746 0.587597
v 0.128539 -0.169578 0.587597
v 0.131183 -0.169112 0.587597
v 0.128080 -0.164332 0.587597
v 0.130765 -0.164332 0.587597
v 0.128539 -0.159087 0.587597
v 0.131183 -0.159553 0.587597
v 0.132425 -0.154919 0.587597
v 0.129902 -0.154000 0.587597
v 0.134453 -0.150571 0.587597
v 0.132127 -0.149228 0.587597
v 0.137204 -0.146641 0.587597
v 0.135147 -0.144915 0.587597
v 0.140597 -0.143248 0.587597
v 0.138871 -0.141191 0.587597
v 0.144527 -0.140496 0.587597
v 0.143184 -0.138171 0.587597
v 0.148875 -0.138469 0.587597
v 0.153509 -0.137227 0.587597
v 0.147957 -0.135945 0.587597
v 0.158289 -0.136809 0.587597
v 0.163068 -0.191438 0.587597
v 0.173393 -0.190494 0.587597
v 0.167702 -0.190196 0.587597
v 0.177707 -0.187474 0.587597
v 0.172050 -0.188169 0.587597
v 0.175981 -0.185417 0.587597
v 0.181430 -0.183750 0.587597
v 0.179373 -0.182024 0.587597
v 0.184450 -0.179437 0.587597
v 0.182125 -0.178094 0.587597
v 0.186676 -0.174665 0.587597
v 0.184152 -0.173746 0.587597
v 0.188039 -0.169578 0.587597
v 0.185394 -0.169112 0.587597
v 0.188498 -0.164332 0.587597
v 0.185812 -0.164332 0.587597
v 0.185394 -0.159553 0.587597
v 0.188039 -0.159087 0.587597
v 0.184152 -0.154919 0.587597
v 0.186676 -0.154000 0.587597
v 0.182125 -0.150571 0.587597
v 0.184450 -0.149228 0.587597
v 0.179373 -0.146641 0.587597
v 0.181430 -0.144915 0.587597
v 0.175981 -0.143248 0.587597
v 0.177707 -0.141191 0.587597
v 0.172050 -0.140496 0.587597
v 0.173393 -0.138171 0.587597
v 0.167702 -0.138469 0.587597
v 0.163068 -0.137227 0.587597
v 0.168621 -0.135945 0.587597
v 0.153043 -0.134583 0.587597
v 0.163534 -0.134583 0.587597
v 0.158289 -0.134124 0.587597
v 0.158289 -0.134124 0.587597
v 0.153043 -0.134583 0.587597
v 0.163534 -0.134583 0.587597
v 0.168621 -0.135945 0.587597
v 0.147957 -0.135945 0.587597
v 0.158289 -0.136809 0.587597
v 0.163068 -0.137227 0.587597
v 0.173393 -0.138171 0.587597
v 0.167702 -0.138469 0.587597
v 0.172050 -0.140496 0.587597
v 0.177707 -0.141191 0.587597
v 0.175981 -0.143248 0.587597
v 0.181430 -0.144915 0.587597
v 0.179373 -0.146641 0.587597
v 0.184450 -0.149228 0.587597
v 0.182125 -0.150571 0.587597
v 0.186676 -0.154000 0.587597
v 0.184152 -0.154919 0.587597
v 0.188039 -0.159087 0.587597
v 0.185394 -0.159553 0.587597
v 0.188498 -0.164332 0.587597
v 0.185812 -0.164332 0.587597
v 0.185394 -0.169112 0.587597
v 0.188039 -0.169578 0.587597
v 0.184152 -0.173746 0.587597
v 0.186676 -0.174665 0.587597
v 0.182125 -0.178094 0.587597
v 0.184450 -0.179437 0.587597
v 0.179373 -0.182024 0.587597
v 0.181430 -0.183750 0.587597
v 0.175981 -0.185417 0.587597
v 0.177707 -0.187474 0.587597
v 0.172050 -0.188169 0.587597
v 0.167702 -0.190196 0.587597
v 0.173393 -0.190494 0.587597
v 0.163068 -0.191438 0.587597
v 0.158289 -0.191856 0.587597
v 0.168621 -0.192720 0.587597
v 0.153509 -0.137227 0.587597
v 0.143184 -0.138171 0.587597
v 0.148875 -0.138469 0.587597
v 0.144527 -0.140496 0.587597
v 0.138871 -0.141191 0.587597
v 0.140597 -0.143248 0.587597
v 0.135147 -0.144915 0.587597
v 0.137204 -0.146641 0.587597
v 0.132127 -0.149228 0.587597
v 0.134453 -0.150571 0.587597
v 0.129902 -0.154000 0.587597
v 0.132425 -0.154919 0.587597
v 0.128539 -0.159087 0.587597
v 0.131183 -0.159553 0.587597
v 0.130765 -0.164332 0.587597
v 0.128080 -0.164332 0.587597
v 0.131183 -0.169112 0.587597
v 0.128539 -0.169578 0.587597
v 0.132425 -0.173746 0.587597
v 0.129902 -0.174665 0.587597
v 0.134453 -0.178094 0.587597
v 0.132127 -0.179437 0.587597
v 0.137204 -0.182024 0.587597
v 0.135147 -0.183750 0.587597
v 0.140597 -0.185417 0.587597
v 0.138871 -0.187474 0.587597
v 0.144527 -0.188169 0.587597
v 0.148875 -0.190196 0.587597
v 0.143184 -0.190494 0.587597
v 0.153509 -0.191438 0.587597
v 0.147957 -0.192720 0.587597
v 0.153043 -0.194082 0.587597
v 0.163534 -0.194082 0.587597
v 0.158289 -0.194541 0.587597
vt -6.919936 0.6947078
vt -6.950701 0.6947078
vt -6.935318 0.6933621
vt -6.965615 0.6987042
vt -6.905021 0.6987042
vt -6.935318 0.7012361
vt -6.921303 0.7024622
vt -6.891027 0.7052299
vt -6.907714 0.7061034
vt -6.878379 0.7140865
vt -6.894964 0.712049
vt -6.88344 0.7201183
vt -6.86746 0.7250049
vt -6.873492 0.7300662
vt -6.858604 0.7376534
vt -6.865423 0.7415904
vt -6.852078 0.7516477
vt -6.859477 0.7543407
vt -6.848081 0.7665625
vt -6.855836 0.7679298
vt -6.846736 0.7819447
vt -6.85461 0.7819447
vt -6.848081 0.7973269
vt -6.855836 0.7959596
vt -6.859477 0.8095487
vt -6.852078 0.8122418
vt -6.865423 0.8222991
vt -6.858604 0.8262361
vt -6.873492 0.8338233
vt -6.86746 0.8388846
vt -6.88344 0.8437712
vt -6.878379 0.849803
vt -6.894964 0.8518405
vt -6.891027 0.8586596
vt -6.907714 0.8577861
vt -6.921303 0.8614272
vt -6.905021 0.8651852
vt -6.935318 0.8626534
vt -6.949333 0.7024622
vt -6.97961 0.7052299
vt -6.962922 0.7061034
vt -6.992258 0.7140865
vt -6.975673 0.712049
vt -6.987197 0.7201183
vt -7.003177 0.7250049
vt -6.997145 0.7300662
vt -7.012033 0.7376534
vt -7.005214 0.7415904
vt -7.018559 0.7516477
vt -7.01116 0.7543407
vt -7.022555 0.7665625
vt -7.014801 0.7679298
vt -7.023901 0.7819447
vt -7.016027 0.7819447
vt -7.014801 0.7959596
vt -7.022555 0.7973269
vt -7.01116 0.8095487
vt -7.018559 0.8122418
vt -7.005214 0.8222991
vt -7.012033 0.8262361
vt -6.997145 0.8338233
vt -7.003177 0.8388846
vt -6.987197 0.8437712
vt -6.992258 0.849803
vt -6.975673 0.8518405
vt -6.97961 0.8586596
vt -6.962922 0.8577861
vt -6.949333 0.8614272
vt -6.965615 0.8651852
vt -6.919936 0.8691816
vt -6.950701 0.8691816
vt -6.935318 0.8705274
vn 0 0 -1
vn 0 0 1
usemtl material_0_0
f 1/1/1 2/2/1 3/3/1
f 2/2/1 1/1/1 4/4/1
f 4/4/1 1/1/1 5/5/1
f 4/4/1 5/5/1 6/6/1
f 6/6/1 5/5/1 7/7/1
f 7/7/1 5/5/1 8/8/1
f 7/7/1 8/8/1 9/9/1
f 9/9/1 8/8/1 10/10/1
f 9/9/1 10/10/1 11/11/1
f 11/11/1 10/10/1 12/12/1
f 12/12/1 10/10/1 13/13/1
f 12/12/1 13/13/1 14/14/1
f 14/14/1 13/13/1 15/15/1
f 14/14/1 15/15/1 16/16/1
f 16/16/1 15/15/1 17/17/1
f 16/16/1 17/17/1 18/18/1
f 18/18/1 17/17/1 19/19/1
f 18/18/1 19/19/1 20/20/1
f 20/20/1 19/19/1 21/21/1
f 20/20/1 21/21/1 22/22/1
f 22/22/1 21/21/1 23/23/1
f 22/22/1 23/23/1 24/24/1
f 24/24/1 23/23/1 25/25/1
f 25/25/1 23/23/1 26/26/1
f 25/25/1 26/26/1 27/27/1
f 27/27/1 26/26/1 28/28/1
f 27/27/1 28/28/1 29/29/1
f 29/29/1 28/28/1 30/30/1
f 29/29/1 30/30/1 31/31/1
f 31/31/1 30/30/1 32/32/1
f 31/31/1 32/32/1 33/33/1
f 33/33/1 32/32/1 34/34/1
f 33/33/1 34/34/1 35/35/1
f 35/35/1 34/34/1 36/36/1
f 36/36/1 34/34/1 37/37/1
f 36/36/1 37/37/1 38/38/1
f 4/4/1 39/39/1 40/40/1
f 39/39/1 4/4/1 6/6/1
f 40/40/1 39/39/1 41/41/1
f 40/40/1 41/41/1 42/42/1
f 42/42/1 41/41/1 43/43/1
f 42/42/1 43/43/1 44/44/1
f 42/42/1 44/44/1 45/45/1
f 45/45/1 44/44/1 46/46/1
f 45/45/1 46/46/1 47/47/1
f 47/47/1 46/46/1 48/48/1
f 47/47/1 48/48/1 49/49/1
f 49/49/1 48/48/1 50/50/1
f 49/49/1 50/50/1 51/51/1
f 51/51/1 50/50/1 52/52/1
f 51/51/1 52/52/1 53/53/1
f 53/53/1 52/52/1 54/54/1
f 53/53/1 54/54/1 55/55/1
f 53/53/1 55/55/1 56/56/1
f 56/56/1 55/55/1 57/57/1
f 56/56/1 57/57/1 58/58/1
f 58/58/1 57/57/1 59/59/1
f 58/58/1 59/59/1 60/60/1
f 60/60/1 59/59/1 61/61/1
f 60/60/1 61/61/1 62/62/1
f 62/62/1 61/61/1 63/63/1
f 62/62/1 63/63/1 64/64/1
f 64/64/1 63/63/1 65/65/1
f 64/64/1 65/65/1 66/66/1
f 66/66/1 65/65/1 67/67/1
f 66/66/1 67/67/1 68/68/1
f 66/66/1 68/68/1 69/69/1
f 69/69/1 68/68/1 38/38/1
f 69/69/1 38/38/1 37/37/1
f 69/69/1 37/37/1 70/70/1
f 69/69/1 70/70/1 71/71/1
f 71/71/1 70/70/1 72/72/1
f 73/72/2 74/70/2 75/71/2
f 75/71/2 74/70/2 76/69/2
f 74/70/2 77/37/2 76/69/2
f 77/37/2 78/38/2 76/69/2
f 78/38/2 79/68/2 76/69/2
f 76/69/2 79/68/2 80/66/2
f 79/68/2 81/67/2 80/66/2
f 81/67/2 82/65/2 80/66/2
f 80/66/2 82/65/2 83/64/2
f 82/65/2 84/63/2 83/64/2
f 83/64/2 84/63/2 85/62/2
f 84/63/2 86/61/2 85/62/2
f 85/62/2 86/61/2 87/60/2
f 86/61/2 88/59/2 87/60/2
f 87/60/2 88/59/2 89/58/2
f 88/59/2 90/57/2 89/58/2
f 89/58/2 90/57/2 91/56/2
f 90/57/2 92/55/2 91/56/2
f 91/56/2 92/55/2 93/53/2
f 92/55/2 94/54/2 93/53/2
f 94/54/2 95/52/2 93/53/2
f 93/53/2 95/52/2 96/51/2
f 95/52/2 97/50/2 96/51/2
f 96/51/2 97/50/2 98/49/2
f 97/50/2 99/48/2 98/49/2
f 98/49/2 99/48/2 100/47/2
f 99/48/2 101/46/2 100/47/2
f 100/47/2 101/46/2 102/45/2
f 101/46/2 103/44/2 102/45/2
f 102/45/2 103/44/2 104/42/2
f 103/44/2 105/43/2 104/42/2
f 105/43/2 106/41/2 104/42/2
f 104/42/2 106/41/2 107/40/2
f 106/41/2 108/39/2 107/40/2
f 109/6/2 110/4/2 108/39/2
f 107/40/2 108/39/2 110/4/2
f 78/38/2 77/37/2 111/36/2
f 77/37/2 112/34/2 111/36/2
f 111/36/2 112/34/2 113/35/2
f 113/35/2 112/34/2 114/33/2
f 112/34/2 115/32/2 114/33/2
f 114/33/2 115/32/2 116/31/2
f 115/32/2 117/30/2 116/31/2
f 116/31/2 117/30/2 118/29/2
f 117/30/2 119/28/2 118/29/2
f 118/29/2 119/28/2 120/27/2
f 119/28/2 121/26/2 120/27/2
f 120/27/2 121/26/2 122/25/2
f 121/26/2 123/23/2 122/25/2
f 122/25/2 123/23/2 124/24/2
f 124/24/2 123/23/2 125/22/2
f 123/23/2 126/21/2 125/22/2
f 125/22/2 126/21/2 127/20/2
f 126/21/2 128/19/2 127/20/2
f 127/20/2 128/19/2 129/18/2
f 128/19/2 130/17/2 129/18/2
f 129/18/2 130/17/2 131/16/2
f 130/17/2 132/15/2 131/16/2
f 131/16/2 132/15/2 133/14/2
f 132/15/2 134/13/2 133/14/2
f 133/14/2 134/13/2 135/12/2
f 134/13/2 136/10/2 135/12/2
f 135/12/2 136/10/2 137/11/2
f 137/11/2 136/10/2 138/9/2
f 136/10/2 139/8/2 138/9/2
f 138/9/2 139/8/2 140/7/2
f 139/8/2 141/5/2 140/7/2
f 140/7/2 141/5/2 109/6/2
f 109/6/2 141/5/2 110/4/2
f 141/5/2 142/1/2 110/4/2
f 110/4/2 142/1/2 143/2/2
f 144/3/2 143/2/2 142/1/2
