# SSTK version 0.8.0
# 9
mtllib original_9.mtl
o object_0
v 0.406673 -0.456217 0.579579
v 0.406673 0.493683 0.311056
v 0.406673 0.493683 0.579579
v 0.406673 -0.456217 0.311056
v 0.406673 -0.456217 0.311056
v 0.406673 -0.456217 0.579579
v 0.406673 0.493683 0.311056
v 0.406673 0.493683 0.579579
v 0.406673 -0.456217 0.579579
v 0.167932 -0.200321 0.579579
v -0.459315 -0.456217 0.579579
v 0.176917 -0.196598 0.579579
v 0.184634 -0.190678 0.579579
v 0.190555 -0.182961 0.579579
v 0.194277 -0.173975 0.579579
v 0.406673 0.493683 0.579579
v 0.158289 -0.201590 0.579579
v 0.195546 -0.164332 0.579579
v 0.194277 -0.154689 0.579579
v 0.190555 -0.145704 0.579579
v 0.184634 -0.137987 0.579579
v 0.176917 -0.132066 0.579579
v 0.167932 -0.128344 0.579579
v 0.158289 -0.127075 0.579579
v 0.131944 -0.190678 0.579579
v -0.459315 0.493683 0.579579
v 0.139660 -0.196598 0.579579
v 0.148646 -0.200321 0.579579
v 0.126023 -0.182961 0.579579
v 0.122301 -0.173975 0.579579
v 0.121031 -0.164332 0.579579
v 0.122301 -0.154689 0.579579
v 0.126023 -0.145704 0.579579
v 0.131944 -0.137987 0.579579
v 0.139660 -0.132066 0.579579
v 0.148646 -0.128344 0.579579
v 0.406673 0.493683 0.579579
v 0.158289 -0.127075 0.579579
v -0.459315 0.493683 0.579579
v 0.148646 -0.128344 0.579579
v 0.139660 -0.132066 0.579579
v 0.131944 -0.137987 0.579579
v 0.126023 -0.145704 0.579579
v 0.122301 -0.154689 0.579579
v 0.121031 -0.164332 0.579579
v 0.122301 -0.173975 0.579579
v 0.126023 -0.182961 0.579579
v 0.131944 -0.190678 0.579579
v 0.158289 -0.201590 0.579579
v -0.459315 -0.456217 0.579579
v 0.148646 -0.200321 0.579579
v 0.139660 -0.196598 0.579579
v 0.167932 -0.128344 0.579579
v 0.176917 -0.132066 0.579579
v 0.184634 -0.137987 0.579579
v 0.190555 -0.145704 0.579579
v 0.194277 -0.154689 0.579579
v 0.195546 -0.164332 0.579579
v 0.194277 -0.173975 0.579579
v 0.167932 -0.200321 0.579579
v 0.406673 -0.456217 0.579579
v 0.190555 -0.182961 0.579579
v 0.184634 -0.190678 0.579579
v 0.176917 -0.196598 0.579579
v 0.406673 -0.456217 0.311056
v -0.459315 -0.456217 0.579579
v -0.459315 -0.456217 0.311056
v 0.406673 -0.456217 0.579579
v 0.406673 -0.456217 0.579579
v 0.406673 -0.456217 0.311056
v -0.459315 -0.456217 0.579579
v -0.459315 -0.456217 0.311056
v -0.459315 0.493683 0.311056
v 0.406673 -0.456217 0.311056
v -0.459315 -0.456217 0.311056
v 0.406673 0.493683 0.311056
v 0.406673 0.493683 0.311056
v -0.459315 0.493683 0.311056
v 0.406673 -0.456217 0.311056
v -0.459315 -0.456217 0.311056
v 0.406673 0.493683 0.579579
v -0.459315 0.493683 0.311056
v -0.459315 0.493683 0.579579
v 0.406673 0.493683 0.311056
v 0.406673 0.493683 0.311056
v 0.406673 0.493683 0.579579
v -0.459315 0.493683 0.311056
v -0.459315 0.493683 0.579579
v -0.459315 0.493683 0.311056
v -0.459315 -0.456217 0.579579
v -0.459315 0.493683 0.579579
v -0.459315 -0.456217 0.311056
v -0.459315 -0.456217 0.311056
v -0.459315 0.493683 0.311056
v -0.459315 -0.456217 0.579579
v -0.459315 0.493683 0.579579
vt 8.881784e-16 0
vt 0.3937008 1.392717
vt 0 1.392717
vt 0.3937008 5.551115e-17
vt 1.269685 -1.344594e-31
vt 0.9196501 0.3751883
vt 0 0
vt 0.9328248 0.3806455
vt 0.9441382 0.3893266
vt 0.9528193 0.40064
vt 0.9582765 0.4138147
vt 1.269685 1.392717
vt 0.9055118 0.373327
vt 0.9601378 0.427953
vt 0.9582765 0.4420912
vt 0.9528193 0.455266
vt 0.9441382 0.4665794
vt 0.9328248 0.4752604
vt 0.9196501 0.4807176
vt 0.9055118 0.4825789
vt 0.8668854 0.3893266
vt 0.8781988 0.3806455
vt 0.8913736 0.3751883
vt 0.8582043 0.40064
vt 0.8527472 0.4138147
vt 0.8508858 0.427953
vt 0.8527472 0.4420912
vt 0.8582043 0.455266
vt 0.8668854 0.4665794
vt 0.8781988 0.4752604
vt 0.8913736 0.4807176
vt -1.269685 0.3937008
vt 5.525051e-48 0.3937008
vt -1.269685 8.881784e-16
vt -1.377021e-16 1.392717
vt -1.269685 -7.002643e-17
vt -1.377021e-16 -7.002643e-17
vt -1.269685 1.392717
vt 1.269685 0
vt 0 0.3937008
vt 1.269685 0.3937008
vt -0.3937008 1.392717
vt -0.3937008 5.551115e-17
vn 1 0 0
vn -1 0 0
vn 0 0 1
vn 0 0 -1
vn 0 -1 0
vn 0 1 0
usemtl material_0_0
f 1/1/1 2/2/1 3/3/1
f 2/2/1 1/1/1 4/4/1
f 5/4/2 6/1/2 7/2/2
f 8/3/2 7/2/2 6/1/2
f 9/5/3 10/6/3 11/7/3
f 10/6/3 9/5/3 12/8/3
f 12/8/3 9/5/3 13/9/3
f 13/9/3 9/5/3 14/10/3
f 14/10/3 9/5/3 15/11/3
f 15/11/3 9/5/3 16/12/3
f 11/7/3 10/6/3 17/13/3
f 15/11/3 16/12/3 18/14/3
f 18/14/3 16/12/3 19/15/3
f 19/15/3 16/12/3 20/16/3
f 20/16/3 16/12/3 21/17/3
f 21/17/3 16/12/3 22/18/3
f 22/18/3 16/12/3 23/19/3
f 23/19/3 16/12/3 24/20/3
f 11/7/3 25/21/3 26/3/3
f 25/21/3 11/7/3 27/22/3
f 27/22/3 11/7/3 28/23/3
f 28/23/3 11/7/3 17/13/3
f 26/3/3 25/21/3 29/24/3
f 26/3/3 29/24/3 30/25/3
f 26/3/3 30/25/3 31/26/3
f 26/3/3 31/26/3 32/27/3
f 26/3/3 32/27/3 33/28/3
f 26/3/3 33/28/3 34/29/3
f 26/3/3 34/29/3 35/30/3
f 26/3/3 35/30/3 36/31/3
f 26/3/3 36/31/3 24/20/3
f 26/3/3 24/20/3 16/12/3
f 37/12/4 38/20/4 39/3/4
f 38/20/4 40/31/4 39/3/4
f 40/31/4 41/30/4 39/3/4
f 41/30/4 42/29/4 39/3/4
f 42/29/4 43/28/4 39/3/4
f 43/28/4 44/27/4 39/3/4
f 44/27/4 45/26/4 39/3/4
f 45/26/4 46/25/4 39/3/4
f 46/25/4 47/24/4 39/3/4
f 47/24/4 48/21/4 39/3/4
f 49/13/4 50/7/4 51/23/4
f 51/23/4 50/7/4 52/22/4
f 52/22/4 50/7/4 48/21/4
f 39/3/4 48/21/4 50/7/4
f 38/20/4 37/12/4 53/19/4
f 53/19/4 37/12/4 54/18/4
f 54/18/4 37/12/4 55/17/4
f 55/17/4 37/12/4 56/16/4
f 56/16/4 37/12/4 57/15/4
f 57/15/4 37/12/4 58/14/4
f 58/14/4 37/12/4 59/11/4
f 49/13/4 60/6/4 50/7/4
f 37/12/4 61/5/4 59/11/4
f 59/11/4 61/5/4 62/10/4
f 62/10/4 61/5/4 63/9/4
f 63/9/4 61/5/4 64/8/4
f 64/8/4 61/5/4 60/6/4
f 50/7/4 60/6/4 61/5/4
f 65/32/5 66/7/5 67/33/5
f 66/7/5 65/32/5 68/34/5
f 69/34/6 70/32/6 71/7/6
f 72/33/6 71/7/6 70/32/6
f 73/35/4 74/36/4 75/37/4
f 74/36/4 73/35/4 76/38/4
f 77/38/3 78/35/3 79/36/3
f 80/37/3 79/36/3 78/35/3
f 81/39/6 82/40/6 83/7/6
f 82/40/6 81/39/6 84/41/6
f 85/41/5 86/39/5 87/40/5
f 88/7/5 87/40/5 86/39/5
f 89/42/2 90/7/2 91/3/2
f 90/7/2 89/42/2 92/43/2
f 93/43/1 94/42/1 95/7/1
f 96/3/1 95/7/1 94/42/1
